G04*
G04 #@! TF.GenerationSoftware,Altium Limited,DefaultClient, ()*
G04*
G04 Layer_Physical_Order=1*
G04 Layer_Color=255*
%FSLAX25Y25*%
%MOIN*%
G70*
G04*
G04 #@! TF.SameCoordinates,BEE212FD-1A4C-4D2E-9424-7381D7AD546F*
G04*
G04*
G04 #@! TF.FilePolarity,Positive*
G04*
G01*
G75*
%ADD11C,0.01000*%
%ADD31C,0.04000*%
%ADD32C,0.05000*%
%ADD33O,0.04331X0.04724*%
G04:AMPARAMS|DCode=34|XSize=43.31mil|YSize=47.24mil|CornerRadius=0mil|HoleSize=0mil|Usage=FLASHONLY|Rotation=180.000|XOffset=0mil|YOffset=0mil|HoleType=Round|Shape=Octagon|*
%AMOCTAGOND34*
4,1,8,0.01083,-0.02362,-0.01083,-0.02362,-0.02165,-0.01280,-0.02165,0.01280,-0.01083,0.02362,0.01083,0.02362,0.02165,0.01280,0.02165,-0.01280,0.01083,-0.02362,0.0*
%
%ADD34OCTAGOND34*%

%ADD35C,0.18000*%
%ADD36R,0.06000X0.06000*%
%ADD37C,0.06000*%
%ADD38C,0.05906*%
%ADD39R,0.05906X0.05906*%
%ADD40C,0.10000*%
%ADD41C,0.07200*%
%ADD42R,0.07200X0.07200*%
%ADD43C,0.11000*%
%ADD44C,0.06299*%
%ADD45R,0.06299X0.06299*%
%ADD46O,0.05000X0.10000*%
%ADD47R,0.05000X0.10000*%
%ADD48C,0.05600*%
G36*
X360000Y440500D02*
Y407433D01*
X359538Y407241D01*
X351640Y415140D01*
X351013Y415621D01*
X350799Y415709D01*
X350283Y415923D01*
X349500Y416026D01*
X132753D01*
X120526Y428253D01*
Y437194D01*
X120557Y437235D01*
X120910Y438086D01*
X121030Y439000D01*
Y444000D01*
X120910Y444914D01*
X120557Y445765D01*
X119996Y446496D01*
X119265Y447057D01*
X118414Y447410D01*
X117500Y447530D01*
X116586Y447410D01*
X115735Y447057D01*
X115004Y446496D01*
X114443Y445765D01*
X114090Y444914D01*
X113970Y444000D01*
Y439000D01*
X114090Y438086D01*
X114443Y437235D01*
X114474Y437194D01*
Y427000D01*
X114577Y426217D01*
X114791Y425701D01*
X114880Y425487D01*
X115360Y424860D01*
X129360Y410860D01*
X129987Y410380D01*
X130717Y410077D01*
X131500Y409974D01*
X348247D01*
X360000Y398221D01*
X360000Y320000D01*
X371000D01*
Y317479D01*
X370500Y317379D01*
X370453Y317493D01*
X369819Y318319D01*
X368993Y318953D01*
X368032Y319351D01*
X367000Y319487D01*
X365968Y319351D01*
X365007Y318953D01*
X364181Y318319D01*
X363547Y317493D01*
X363149Y316532D01*
X363145Y316500D01*
X367000D01*
Y315500D01*
X368000D01*
Y311645D01*
X368032Y311649D01*
X368993Y312047D01*
X369819Y312681D01*
X370453Y313507D01*
X370500Y313621D01*
X371000Y313521D01*
Y310500D01*
X359500D01*
Y274295D01*
X359000Y274262D01*
X358897Y275044D01*
X358494Y276017D01*
X357853Y276853D01*
X357017Y277494D01*
X356044Y277897D01*
X356000Y277903D01*
Y274000D01*
X355000D01*
Y273000D01*
X351097D01*
X351103Y272956D01*
X351506Y271983D01*
X351974Y271373D01*
Y265000D01*
X328548D01*
X328311Y265500D01*
X328713Y265989D01*
X329270Y267032D01*
X329613Y268163D01*
X329729Y269339D01*
X329613Y270515D01*
X329270Y271646D01*
X328713Y272689D01*
X327963Y273602D01*
X327049Y274352D01*
X326007Y274909D01*
X324876Y275252D01*
X323700Y275368D01*
X322524Y275252D01*
X321393Y274909D01*
X320351Y274352D01*
X319437Y273602D01*
X318687Y272689D01*
X318130Y271646D01*
X317787Y270515D01*
X317671Y269339D01*
X317787Y268163D01*
X318130Y267032D01*
X318687Y265989D01*
X319089Y265500D01*
X318852Y265000D01*
X304437D01*
X304216Y265448D01*
X304319Y265584D01*
X304702Y266508D01*
X304833Y267500D01*
X304702Y268492D01*
X304319Y269416D01*
X303710Y270210D01*
X302916Y270819D01*
X302529Y270980D01*
Y313866D01*
X321183Y332520D01*
X321413Y332383D01*
X321589Y332219D01*
X321469Y331000D01*
X321594Y329726D01*
X321966Y328501D01*
X322569Y327371D01*
X323382Y326382D01*
X324371Y325569D01*
X325500Y324966D01*
X326726Y324594D01*
X328000Y324469D01*
X329274Y324594D01*
X330500Y324966D01*
X331629Y325569D01*
X332618Y326382D01*
X333431Y327371D01*
X334034Y328501D01*
X334406Y329726D01*
X334531Y331000D01*
X334406Y332274D01*
X334034Y333500D01*
X333431Y334629D01*
X332618Y335618D01*
X331629Y336431D01*
X330500Y337034D01*
X329274Y337406D01*
X328000Y337531D01*
X326781Y337411D01*
X326617Y337587D01*
X326480Y337817D01*
X338581Y349919D01*
X338913Y350415D01*
X339029Y351000D01*
Y375845D01*
X339265Y375943D01*
X339996Y376504D01*
X340557Y377235D01*
X340910Y378086D01*
X341030Y379000D01*
Y384000D01*
X340910Y384914D01*
X340557Y385765D01*
X339996Y386496D01*
X339265Y387057D01*
X338414Y387410D01*
X337500Y387530D01*
X336586Y387410D01*
X335735Y387057D01*
X335004Y386496D01*
X334443Y385765D01*
X334090Y384914D01*
X333970Y384000D01*
Y379000D01*
X334090Y378086D01*
X334443Y377235D01*
X335004Y376504D01*
X335735Y375943D01*
X335971Y375845D01*
Y351634D01*
X299919Y315581D01*
X299587Y315085D01*
X299471Y314500D01*
Y270980D01*
X299084Y270819D01*
X298290Y270210D01*
X297681Y269416D01*
X297298Y268492D01*
X297285Y268395D01*
X296781D01*
X296702Y268992D01*
X296319Y269916D01*
X295710Y270710D01*
X294916Y271319D01*
X294529Y271480D01*
Y312367D01*
X328581Y346419D01*
X328913Y346915D01*
X329029Y347500D01*
Y375845D01*
X329265Y375943D01*
X329996Y376504D01*
X330557Y377235D01*
X330910Y378086D01*
X331030Y379000D01*
Y384000D01*
X330910Y384914D01*
X330557Y385765D01*
X329996Y386496D01*
X329265Y387057D01*
X328414Y387410D01*
X327500Y387530D01*
X326586Y387410D01*
X325735Y387057D01*
X325004Y386496D01*
X324443Y385765D01*
X324090Y384914D01*
X323970Y384000D01*
Y379000D01*
X324090Y378086D01*
X324443Y377235D01*
X325004Y376504D01*
X325735Y375943D01*
X325971Y375845D01*
Y348133D01*
X298164Y320327D01*
X297868Y320443D01*
X297712Y320582D01*
X297833Y321500D01*
X297702Y322492D01*
X297542Y322879D01*
X318581Y343919D01*
X318913Y344415D01*
X319029Y345000D01*
Y375845D01*
X319265Y375943D01*
X319996Y376504D01*
X320557Y377235D01*
X320910Y378086D01*
X321030Y379000D01*
Y384000D01*
X320910Y384914D01*
X320557Y385765D01*
X319996Y386496D01*
X319265Y387057D01*
X318414Y387410D01*
X317500Y387530D01*
X316586Y387410D01*
X315735Y387057D01*
X315004Y386496D01*
X314443Y385765D01*
X314090Y384914D01*
X313970Y384000D01*
Y379000D01*
X314090Y378086D01*
X314443Y377235D01*
X315004Y376504D01*
X315735Y375943D01*
X315971Y375845D01*
Y345634D01*
X295379Y325042D01*
X294992Y325202D01*
X294000Y325333D01*
X293008Y325202D01*
X292084Y324819D01*
X291290Y324210D01*
X290681Y323416D01*
X290298Y322492D01*
X290167Y321500D01*
X290298Y320508D01*
X290681Y319584D01*
X291290Y318790D01*
X292084Y318181D01*
X293008Y317798D01*
X294000Y317667D01*
X294918Y317788D01*
X295057Y317632D01*
X295173Y317336D01*
X291919Y314081D01*
X291587Y313585D01*
X291471Y313000D01*
Y271480D01*
X291084Y271319D01*
X290290Y270710D01*
X289681Y269916D01*
X289298Y268992D01*
X289167Y268000D01*
X289298Y267008D01*
X289681Y266084D01*
X290128Y265500D01*
X289882Y265000D01*
X251933D01*
X251741Y265462D01*
X253640Y267360D01*
X254120Y267987D01*
X254272Y268352D01*
X254423Y268717D01*
X254435Y268808D01*
X254526Y269500D01*
X254526Y269500D01*
Y308747D01*
X259640Y313860D01*
X260121Y314487D01*
X260209Y314701D01*
X260423Y315217D01*
X260526Y316000D01*
Y373000D01*
Y377194D01*
X260557Y377235D01*
X260910Y378086D01*
X261030Y379000D01*
Y384000D01*
X260910Y384914D01*
X260557Y385765D01*
X259996Y386496D01*
X259265Y387057D01*
X258414Y387410D01*
X257500Y387530D01*
X256586Y387410D01*
X255735Y387057D01*
X255004Y386496D01*
X254443Y385765D01*
X254090Y384914D01*
X253970Y384000D01*
Y379000D01*
X254090Y378086D01*
X254443Y377235D01*
X254474Y377194D01*
Y374253D01*
X238247Y358026D01*
X115500D01*
X114717Y357923D01*
X113987Y357621D01*
X113360Y357140D01*
X103860Y347640D01*
X103379Y347013D01*
X103291Y346799D01*
X103077Y346283D01*
X102974Y345500D01*
Y311000D01*
Y271000D01*
X103077Y270217D01*
X103167Y270000D01*
X103077Y269783D01*
X102974Y269000D01*
Y261000D01*
Y219000D01*
Y190000D01*
Y173000D01*
X88000D01*
Y432000D01*
X112116Y450500D01*
X348462D01*
X360000Y440500D01*
D02*
G37*
G36*
X254474Y365042D02*
Y317253D01*
X249360Y312140D01*
X249360Y312140D01*
X246488Y309267D01*
X246281Y309281D01*
X245320Y310018D01*
X244201Y310482D01*
X243000Y310640D01*
X241799Y310482D01*
X240680Y310018D01*
X239719Y309281D01*
X239524Y309026D01*
X236476D01*
X236281Y309281D01*
X235320Y310018D01*
X234201Y310482D01*
X233000Y310640D01*
X231799Y310482D01*
X230680Y310018D01*
X229719Y309281D01*
X228982Y308320D01*
X228518Y307201D01*
X228360Y306000D01*
X228518Y304799D01*
X228982Y303680D01*
X229719Y302719D01*
X230680Y301982D01*
X231799Y301518D01*
X233000Y301360D01*
X234201Y301518D01*
X235320Y301982D01*
X236281Y302719D01*
X236476Y302974D01*
X239524D01*
X239719Y302719D01*
X240680Y301982D01*
X241799Y301518D01*
X243000Y301360D01*
X244201Y301518D01*
X245320Y301982D01*
X246281Y302719D01*
X246476Y302974D01*
X247500D01*
X247974Y303036D01*
X248474Y302654D01*
Y270753D01*
X246911Y269190D01*
X246327Y269220D01*
X246281Y269281D01*
X245320Y270018D01*
X244201Y270482D01*
X243000Y270640D01*
X241799Y270482D01*
X240680Y270018D01*
X239719Y269281D01*
X239524Y269026D01*
X236476D01*
X236281Y269281D01*
X235320Y270018D01*
X234201Y270482D01*
X233000Y270640D01*
X231799Y270482D01*
X230680Y270018D01*
X229719Y269281D01*
X228982Y268320D01*
X228518Y267201D01*
X228360Y266000D01*
X228443Y265376D01*
X228113Y265000D01*
X210548D01*
X210311Y265500D01*
X210713Y265989D01*
X211270Y267032D01*
X211613Y268163D01*
X211729Y269339D01*
X211613Y270515D01*
X211270Y271646D01*
X210713Y272689D01*
X209963Y273602D01*
X209050Y274352D01*
X208007Y274909D01*
X206876Y275252D01*
X205700Y275368D01*
X204524Y275252D01*
X203393Y274909D01*
X202350Y274352D01*
X201437Y273602D01*
X200687Y272689D01*
X200130Y271646D01*
X199787Y270515D01*
X199671Y269339D01*
X199787Y268163D01*
X200130Y267032D01*
X200687Y265989D01*
X201089Y265500D01*
X200852Y265000D01*
X192500D01*
Y173020D01*
X138267D01*
X138264Y173022D01*
X138202Y173492D01*
X137819Y174416D01*
X137210Y175210D01*
X136416Y175819D01*
X135500Y176199D01*
Y172500D01*
X133500D01*
Y176199D01*
X132584Y175819D01*
X131790Y175210D01*
X131181Y174416D01*
X130798Y173492D01*
X130736Y173022D01*
X130733Y173020D01*
X119600D01*
Y175000D01*
X110400D01*
Y173000D01*
X109026D01*
Y182654D01*
X109526Y183036D01*
X110000Y182974D01*
X111524D01*
X111719Y182719D01*
X112680Y181982D01*
X113799Y181518D01*
X115000Y181360D01*
X116201Y181518D01*
X117320Y181982D01*
X118281Y182719D01*
X119018Y183680D01*
X119482Y184799D01*
X119640Y186000D01*
X119482Y187201D01*
X119018Y188320D01*
X118281Y189281D01*
X117320Y190018D01*
X116201Y190482D01*
X115000Y190640D01*
X113799Y190482D01*
X112680Y190018D01*
X111719Y189281D01*
X111673Y189220D01*
X111089Y189190D01*
X109026Y191253D01*
Y212974D01*
X111524D01*
X111719Y212719D01*
X112680Y211982D01*
X113799Y211518D01*
X115000Y211360D01*
X116201Y211518D01*
X117320Y211982D01*
X118281Y212719D01*
X118476Y212974D01*
X121524D01*
X121719Y212719D01*
X122680Y211982D01*
X123799Y211518D01*
X125000Y211360D01*
X126201Y211518D01*
X127320Y211982D01*
X128281Y212719D01*
X129018Y213680D01*
X129482Y214799D01*
X129640Y216000D01*
X129482Y217201D01*
X129018Y218320D01*
X128281Y219281D01*
X127320Y220018D01*
X126201Y220482D01*
X125000Y220640D01*
X123799Y220482D01*
X122680Y220018D01*
X121719Y219281D01*
X121524Y219026D01*
X118476D01*
X118281Y219281D01*
X117320Y220018D01*
X116201Y220482D01*
X115000Y220640D01*
X113799Y220482D01*
X112680Y220018D01*
X111719Y219281D01*
X111524Y219026D01*
X110253D01*
X109026Y220253D01*
Y253168D01*
X109162Y253235D01*
X109526Y253363D01*
X109852Y253228D01*
X110217Y253077D01*
X110308Y253065D01*
X111000Y252974D01*
X111000Y252974D01*
X111524D01*
X111719Y252719D01*
X112680Y251982D01*
X113799Y251518D01*
X115000Y251360D01*
X116201Y251518D01*
X117320Y251982D01*
X118281Y252719D01*
X118476Y252974D01*
X121524D01*
X121719Y252719D01*
X122680Y251982D01*
X123799Y251518D01*
X125000Y251360D01*
X126201Y251518D01*
X127320Y251982D01*
X128281Y252719D01*
X129018Y253680D01*
X129482Y254799D01*
X129640Y256000D01*
X129482Y257201D01*
X129018Y258320D01*
X128281Y259281D01*
X127320Y260018D01*
X126201Y260482D01*
X125000Y260640D01*
X123799Y260482D01*
X122680Y260018D01*
X121719Y259281D01*
X121524Y259026D01*
X118476D01*
X118281Y259281D01*
X117320Y260018D01*
X116201Y260482D01*
X115000Y260640D01*
X113799Y260482D01*
X112680Y260018D01*
X111877Y259402D01*
X109026Y262253D01*
Y263168D01*
X109162Y263235D01*
X109526Y263363D01*
X109852Y263228D01*
X110217Y263077D01*
X110308Y263065D01*
X111000Y262974D01*
X111000Y262974D01*
X111524D01*
X111719Y262719D01*
X112680Y261982D01*
X113799Y261518D01*
X115000Y261360D01*
X116201Y261518D01*
X117320Y261982D01*
X118281Y262719D01*
X118476Y262974D01*
X121524D01*
X121719Y262719D01*
X122680Y261982D01*
X123799Y261518D01*
X125000Y261360D01*
X126201Y261518D01*
X127320Y261982D01*
X128281Y262719D01*
X129018Y263680D01*
X129482Y264799D01*
X129640Y266000D01*
X129482Y267201D01*
X129018Y268320D01*
X128281Y269281D01*
X127320Y270018D01*
X126201Y270482D01*
X125000Y270640D01*
X123799Y270482D01*
X122680Y270018D01*
X121719Y269281D01*
X121524Y269026D01*
X118476D01*
X118281Y269281D01*
X117320Y270018D01*
X116201Y270482D01*
X115000Y270640D01*
X113799Y270482D01*
X112680Y270018D01*
X111877Y269402D01*
X109026Y272253D01*
Y303168D01*
X109162Y303235D01*
X109526Y303363D01*
X109852Y303228D01*
X110217Y303077D01*
X110308Y303065D01*
X111000Y302974D01*
X111000Y302974D01*
X111524D01*
X111719Y302719D01*
X112680Y301982D01*
X113799Y301518D01*
X115000Y301360D01*
X116201Y301518D01*
X117320Y301982D01*
X118281Y302719D01*
X118476Y302974D01*
X121524D01*
X121719Y302719D01*
X122680Y301982D01*
X123799Y301518D01*
X125000Y301360D01*
X126201Y301518D01*
X127320Y301982D01*
X128281Y302719D01*
X129018Y303680D01*
X129482Y304799D01*
X129640Y306000D01*
X129482Y307201D01*
X129018Y308320D01*
X128281Y309281D01*
X127320Y310018D01*
X126201Y310482D01*
X125000Y310640D01*
X123799Y310482D01*
X122680Y310018D01*
X121719Y309281D01*
X121524Y309026D01*
X118476D01*
X118281Y309281D01*
X117320Y310018D01*
X116201Y310482D01*
X115000Y310640D01*
X113799Y310482D01*
X112680Y310018D01*
X111877Y309402D01*
X109026Y312253D01*
Y344247D01*
X116753Y351974D01*
X239500D01*
X240283Y352077D01*
X240799Y352291D01*
X241013Y352379D01*
X241640Y352860D01*
X254012Y365233D01*
X254474Y365042D01*
D02*
G37*
G36*
X340000Y228000D02*
X362354Y228000D01*
X362546Y227538D01*
X361853Y226845D01*
X359917D01*
X359793Y226940D01*
X358784Y227358D01*
X357701Y227500D01*
X356617Y227358D01*
X355608Y226940D01*
X354741Y226274D01*
X354076Y225408D01*
X353658Y224398D01*
X353647Y224315D01*
X357701D01*
Y223315D01*
X358701D01*
Y219261D01*
X358784Y219272D01*
X359793Y219690D01*
X359917Y219785D01*
X363315D01*
X363624Y219826D01*
X364000Y219496D01*
X364000Y160354D01*
X363646Y160000D01*
X249715D01*
Y180811D01*
X249715Y180811D01*
X249624Y181503D01*
X249612Y181594D01*
X249523Y181808D01*
X249309Y182324D01*
X249037Y182678D01*
X248829Y182951D01*
X248829Y182951D01*
X243640Y188140D01*
X243013Y188620D01*
X242799Y188709D01*
X242283Y188923D01*
X241500Y189026D01*
X236476D01*
X236281Y189281D01*
X235320Y190018D01*
X234201Y190482D01*
X233000Y190640D01*
X231799Y190482D01*
X230680Y190018D01*
X229719Y189281D01*
X228982Y188320D01*
X228518Y187201D01*
X228360Y186000D01*
X228518Y184799D01*
X228982Y183680D01*
X229719Y182719D01*
X230680Y181982D01*
X231799Y181518D01*
X233000Y181360D01*
X234201Y181518D01*
X235320Y181982D01*
X236281Y182719D01*
X236476Y182974D01*
X240247D01*
X243663Y179558D01*
Y160000D01*
X110000D01*
Y164906D01*
X110500Y164939D01*
X110518Y164799D01*
X110982Y163680D01*
X111719Y162719D01*
X112680Y161982D01*
X113799Y161518D01*
X114000Y161492D01*
Y166000D01*
Y170508D01*
X113799Y170482D01*
X112680Y170018D01*
X111719Y169281D01*
X110982Y168320D01*
X110518Y167201D01*
X110500Y167061D01*
X110000Y167094D01*
Y171159D01*
X110400Y171400D01*
X119600D01*
Y172000D01*
X130733D01*
X130798Y171508D01*
X131181Y170584D01*
X131790Y169790D01*
X132584Y169181D01*
X133508Y168798D01*
X134500Y168667D01*
X135492Y168798D01*
X136416Y169181D01*
X137210Y169790D01*
X137819Y170584D01*
X138202Y171508D01*
X138267Y172000D01*
X195000D01*
Y262500D01*
X230005D01*
X230680Y261982D01*
X231799Y261518D01*
X233000Y261360D01*
X234201Y261518D01*
X235320Y261982D01*
X235995Y262500D01*
X240005D01*
X240680Y261982D01*
X241799Y261518D01*
X243000Y261360D01*
X244201Y261518D01*
X245320Y261982D01*
X245995Y262500D01*
X340000D01*
Y228000D01*
D02*
G37*
%LPC*%
G36*
X258500Y447374D02*
Y442500D01*
X261030D01*
Y444000D01*
X260910Y444914D01*
X260557Y445765D01*
X259996Y446496D01*
X259265Y447057D01*
X258500Y447374D01*
D02*
G37*
G36*
X256500D02*
X255735Y447057D01*
X255004Y446496D01*
X254443Y445765D01*
X254090Y444914D01*
X253970Y444000D01*
Y442500D01*
X256500D01*
Y447374D01*
D02*
G37*
G36*
X128500D02*
Y442500D01*
X131030D01*
Y444000D01*
X130910Y444914D01*
X130557Y445765D01*
X129996Y446496D01*
X129265Y447057D01*
X128500Y447374D01*
D02*
G37*
G36*
X126500D02*
X125735Y447057D01*
X125004Y446496D01*
X124443Y445765D01*
X124090Y444914D01*
X123970Y444000D01*
Y442500D01*
X126500D01*
Y447374D01*
D02*
G37*
G36*
X261030Y440500D02*
X258500D01*
Y435626D01*
X259265Y435943D01*
X259996Y436504D01*
X260557Y437235D01*
X260910Y438086D01*
X261030Y439000D01*
Y440500D01*
D02*
G37*
G36*
X256500D02*
X253970D01*
Y439000D01*
X254090Y438086D01*
X254443Y437235D01*
X255004Y436504D01*
X255735Y435943D01*
X256500Y435626D01*
Y440500D01*
D02*
G37*
G36*
X131030D02*
X128500D01*
Y435626D01*
X129265Y435943D01*
X129996Y436504D01*
X130557Y437235D01*
X130910Y438086D01*
X131030Y439000D01*
Y440500D01*
D02*
G37*
G36*
X126500D02*
X123970D01*
Y439000D01*
X124090Y438086D01*
X124443Y437235D01*
X125004Y436504D01*
X125735Y435943D01*
X126500Y435626D01*
Y440500D01*
D02*
G37*
G36*
X347500Y447530D02*
X346586Y447410D01*
X345735Y447057D01*
X345004Y446496D01*
X344443Y445765D01*
X344090Y444914D01*
X343970Y444000D01*
Y439000D01*
X344090Y438086D01*
X344443Y437235D01*
X345004Y436504D01*
X345735Y435943D01*
X346586Y435590D01*
X347500Y435470D01*
X348414Y435590D01*
X349265Y435943D01*
X349996Y436504D01*
X350557Y437235D01*
X350910Y438086D01*
X351030Y439000D01*
Y444000D01*
X350910Y444914D01*
X350557Y445765D01*
X349996Y446496D01*
X349265Y447057D01*
X348414Y447410D01*
X347500Y447530D01*
D02*
G37*
G36*
X337500D02*
X336586Y447410D01*
X335735Y447057D01*
X335004Y446496D01*
X334443Y445765D01*
X334090Y444914D01*
X333970Y444000D01*
Y439000D01*
X334090Y438086D01*
X334443Y437235D01*
X335004Y436504D01*
X335735Y435943D01*
X336586Y435590D01*
X337500Y435470D01*
X338414Y435590D01*
X339265Y435943D01*
X339996Y436504D01*
X340557Y437235D01*
X340910Y438086D01*
X341030Y439000D01*
Y444000D01*
X340910Y444914D01*
X340557Y445765D01*
X339996Y446496D01*
X339265Y447057D01*
X338414Y447410D01*
X337500Y447530D01*
D02*
G37*
G36*
X327500D02*
X326586Y447410D01*
X325735Y447057D01*
X325004Y446496D01*
X324443Y445765D01*
X324090Y444914D01*
X323970Y444000D01*
Y439000D01*
X324090Y438086D01*
X324443Y437235D01*
X325004Y436504D01*
X325735Y435943D01*
X326586Y435590D01*
X327500Y435470D01*
X328414Y435590D01*
X329265Y435943D01*
X329996Y436504D01*
X330557Y437235D01*
X330910Y438086D01*
X331030Y439000D01*
Y444000D01*
X330910Y444914D01*
X330557Y445765D01*
X329996Y446496D01*
X329265Y447057D01*
X328414Y447410D01*
X327500Y447530D01*
D02*
G37*
G36*
X317500D02*
X316586Y447410D01*
X315735Y447057D01*
X315004Y446496D01*
X314443Y445765D01*
X314090Y444914D01*
X313970Y444000D01*
Y439000D01*
X314090Y438086D01*
X314443Y437235D01*
X315004Y436504D01*
X315735Y435943D01*
X316586Y435590D01*
X317500Y435470D01*
X318414Y435590D01*
X319265Y435943D01*
X319996Y436504D01*
X320557Y437235D01*
X320910Y438086D01*
X321030Y439000D01*
Y444000D01*
X320910Y444914D01*
X320557Y445765D01*
X319996Y446496D01*
X319265Y447057D01*
X318414Y447410D01*
X317500Y447530D01*
D02*
G37*
G36*
X307500D02*
X306586Y447410D01*
X305735Y447057D01*
X305004Y446496D01*
X304443Y445765D01*
X304090Y444914D01*
X303970Y444000D01*
Y439000D01*
X304090Y438086D01*
X304443Y437235D01*
X305004Y436504D01*
X305735Y435943D01*
X306586Y435590D01*
X307500Y435470D01*
X308414Y435590D01*
X309265Y435943D01*
X309996Y436504D01*
X310557Y437235D01*
X310910Y438086D01*
X311030Y439000D01*
Y444000D01*
X310910Y444914D01*
X310557Y445765D01*
X309996Y446496D01*
X309265Y447057D01*
X308414Y447410D01*
X307500Y447530D01*
D02*
G37*
G36*
X297500D02*
X296586Y447410D01*
X295735Y447057D01*
X295004Y446496D01*
X294443Y445765D01*
X294090Y444914D01*
X293970Y444000D01*
Y439000D01*
X294090Y438086D01*
X294443Y437235D01*
X295004Y436504D01*
X295735Y435943D01*
X296586Y435590D01*
X297500Y435470D01*
X298414Y435590D01*
X299265Y435943D01*
X299996Y436504D01*
X300557Y437235D01*
X300910Y438086D01*
X301030Y439000D01*
Y444000D01*
X300910Y444914D01*
X300557Y445765D01*
X299996Y446496D01*
X299265Y447057D01*
X298414Y447410D01*
X297500Y447530D01*
D02*
G37*
G36*
X287500D02*
X286586Y447410D01*
X285735Y447057D01*
X285004Y446496D01*
X284443Y445765D01*
X284090Y444914D01*
X283970Y444000D01*
Y439000D01*
X284090Y438086D01*
X284443Y437235D01*
X285004Y436504D01*
X285735Y435943D01*
X286586Y435590D01*
X287500Y435470D01*
X288414Y435590D01*
X289265Y435943D01*
X289996Y436504D01*
X290557Y437235D01*
X290910Y438086D01*
X291030Y439000D01*
Y444000D01*
X290910Y444914D01*
X290557Y445765D01*
X289996Y446496D01*
X289265Y447057D01*
X288414Y447410D01*
X287500Y447530D01*
D02*
G37*
G36*
X277500D02*
X276586Y447410D01*
X275735Y447057D01*
X275004Y446496D01*
X274443Y445765D01*
X274090Y444914D01*
X273970Y444000D01*
Y439000D01*
X274090Y438086D01*
X274443Y437235D01*
X275004Y436504D01*
X275735Y435943D01*
X276586Y435590D01*
X277500Y435470D01*
X278414Y435590D01*
X279265Y435943D01*
X279996Y436504D01*
X280557Y437235D01*
X280910Y438086D01*
X281030Y439000D01*
Y444000D01*
X280910Y444914D01*
X280557Y445765D01*
X279996Y446496D01*
X279265Y447057D01*
X278414Y447410D01*
X277500Y447530D01*
D02*
G37*
G36*
X267500D02*
X266586Y447410D01*
X265735Y447057D01*
X265004Y446496D01*
X264443Y445765D01*
X264090Y444914D01*
X263970Y444000D01*
Y439000D01*
X264090Y438086D01*
X264443Y437235D01*
X265004Y436504D01*
X265735Y435943D01*
X266586Y435590D01*
X267500Y435470D01*
X268414Y435590D01*
X269265Y435943D01*
X269996Y436504D01*
X270557Y437235D01*
X270910Y438086D01*
X271030Y439000D01*
Y444000D01*
X270910Y444914D01*
X270557Y445765D01*
X269996Y446496D01*
X269265Y447057D01*
X268414Y447410D01*
X267500Y447530D01*
D02*
G37*
G36*
X247500D02*
X246586Y447410D01*
X245735Y447057D01*
X245004Y446496D01*
X244443Y445765D01*
X244090Y444914D01*
X243970Y444000D01*
Y439000D01*
X244090Y438086D01*
X244443Y437235D01*
X245004Y436504D01*
X245735Y435943D01*
X246586Y435590D01*
X247500Y435470D01*
X248414Y435590D01*
X249265Y435943D01*
X249996Y436504D01*
X250557Y437235D01*
X250910Y438086D01*
X251030Y439000D01*
Y444000D01*
X250910Y444914D01*
X250557Y445765D01*
X249996Y446496D01*
X249265Y447057D01*
X248414Y447410D01*
X247500Y447530D01*
D02*
G37*
G36*
X237500D02*
X236586Y447410D01*
X235735Y447057D01*
X235004Y446496D01*
X234443Y445765D01*
X234090Y444914D01*
X233970Y444000D01*
Y439000D01*
X234090Y438086D01*
X234443Y437235D01*
X235004Y436504D01*
X235735Y435943D01*
X236586Y435590D01*
X237500Y435470D01*
X238414Y435590D01*
X239265Y435943D01*
X239996Y436504D01*
X240557Y437235D01*
X240910Y438086D01*
X241030Y439000D01*
Y444000D01*
X240910Y444914D01*
X240557Y445765D01*
X239996Y446496D01*
X239265Y447057D01*
X238414Y447410D01*
X237500Y447530D01*
D02*
G37*
G36*
X227500D02*
X226586Y447410D01*
X225735Y447057D01*
X225004Y446496D01*
X224443Y445765D01*
X224090Y444914D01*
X223970Y444000D01*
Y439000D01*
X224090Y438086D01*
X224443Y437235D01*
X225004Y436504D01*
X225735Y435943D01*
X226586Y435590D01*
X227500Y435470D01*
X228414Y435590D01*
X229265Y435943D01*
X229996Y436504D01*
X230557Y437235D01*
X230910Y438086D01*
X231030Y439000D01*
Y444000D01*
X230910Y444914D01*
X230557Y445765D01*
X229996Y446496D01*
X229265Y447057D01*
X228414Y447410D01*
X227500Y447530D01*
D02*
G37*
G36*
X217500D02*
X216586Y447410D01*
X215735Y447057D01*
X215004Y446496D01*
X214443Y445765D01*
X214090Y444914D01*
X213970Y444000D01*
Y439000D01*
X214090Y438086D01*
X214443Y437235D01*
X215004Y436504D01*
X215735Y435943D01*
X216586Y435590D01*
X217500Y435470D01*
X218414Y435590D01*
X219265Y435943D01*
X219996Y436504D01*
X220557Y437235D01*
X220910Y438086D01*
X221030Y439000D01*
Y444000D01*
X220910Y444914D01*
X220557Y445765D01*
X219996Y446496D01*
X219265Y447057D01*
X218414Y447410D01*
X217500Y447530D01*
D02*
G37*
G36*
X207500D02*
X206586Y447410D01*
X205735Y447057D01*
X205004Y446496D01*
X204443Y445765D01*
X204090Y444914D01*
X203970Y444000D01*
Y439000D01*
X204090Y438086D01*
X204443Y437235D01*
X205004Y436504D01*
X205735Y435943D01*
X206586Y435590D01*
X207500Y435470D01*
X208414Y435590D01*
X209265Y435943D01*
X209996Y436504D01*
X210557Y437235D01*
X210910Y438086D01*
X211030Y439000D01*
Y444000D01*
X210910Y444914D01*
X210557Y445765D01*
X209996Y446496D01*
X209265Y447057D01*
X208414Y447410D01*
X207500Y447530D01*
D02*
G37*
G36*
X197500D02*
X196586Y447410D01*
X195735Y447057D01*
X195004Y446496D01*
X194443Y445765D01*
X194090Y444914D01*
X193970Y444000D01*
Y439000D01*
X194090Y438086D01*
X194443Y437235D01*
X195004Y436504D01*
X195735Y435943D01*
X196586Y435590D01*
X197500Y435470D01*
X198414Y435590D01*
X199265Y435943D01*
X199996Y436504D01*
X200557Y437235D01*
X200910Y438086D01*
X201030Y439000D01*
Y444000D01*
X200910Y444914D01*
X200557Y445765D01*
X199996Y446496D01*
X199265Y447057D01*
X198414Y447410D01*
X197500Y447530D01*
D02*
G37*
G36*
X187500D02*
X186586Y447410D01*
X185735Y447057D01*
X185004Y446496D01*
X184443Y445765D01*
X184090Y444914D01*
X183970Y444000D01*
Y439000D01*
X184090Y438086D01*
X184443Y437235D01*
X185004Y436504D01*
X185735Y435943D01*
X186586Y435590D01*
X187500Y435470D01*
X188414Y435590D01*
X189265Y435943D01*
X189996Y436504D01*
X190557Y437235D01*
X190910Y438086D01*
X191030Y439000D01*
Y444000D01*
X190910Y444914D01*
X190557Y445765D01*
X189996Y446496D01*
X189265Y447057D01*
X188414Y447410D01*
X187500Y447530D01*
D02*
G37*
G36*
X177500D02*
X176586Y447410D01*
X175735Y447057D01*
X175004Y446496D01*
X174443Y445765D01*
X174090Y444914D01*
X173970Y444000D01*
Y439000D01*
X174090Y438086D01*
X174443Y437235D01*
X175004Y436504D01*
X175735Y435943D01*
X176586Y435590D01*
X177500Y435470D01*
X178414Y435590D01*
X179265Y435943D01*
X179996Y436504D01*
X180557Y437235D01*
X180910Y438086D01*
X181030Y439000D01*
Y444000D01*
X180910Y444914D01*
X180557Y445765D01*
X179996Y446496D01*
X179265Y447057D01*
X178414Y447410D01*
X177500Y447530D01*
D02*
G37*
G36*
X167500D02*
X166586Y447410D01*
X165735Y447057D01*
X165004Y446496D01*
X164443Y445765D01*
X164090Y444914D01*
X163970Y444000D01*
Y439000D01*
X164090Y438086D01*
X164443Y437235D01*
X165004Y436504D01*
X165735Y435943D01*
X166586Y435590D01*
X167500Y435470D01*
X168414Y435590D01*
X169265Y435943D01*
X169996Y436504D01*
X170557Y437235D01*
X170910Y438086D01*
X171030Y439000D01*
Y444000D01*
X170910Y444914D01*
X170557Y445765D01*
X169996Y446496D01*
X169265Y447057D01*
X168414Y447410D01*
X167500Y447530D01*
D02*
G37*
G36*
X157500D02*
X156586Y447410D01*
X155735Y447057D01*
X155004Y446496D01*
X154443Y445765D01*
X154090Y444914D01*
X153970Y444000D01*
Y439000D01*
X154090Y438086D01*
X154443Y437235D01*
X155004Y436504D01*
X155735Y435943D01*
X156586Y435590D01*
X157500Y435470D01*
X158414Y435590D01*
X159265Y435943D01*
X159996Y436504D01*
X160557Y437235D01*
X160910Y438086D01*
X161030Y439000D01*
Y444000D01*
X160910Y444914D01*
X160557Y445765D01*
X159996Y446496D01*
X159265Y447057D01*
X158414Y447410D01*
X157500Y447530D01*
D02*
G37*
G36*
X147500D02*
X146586Y447410D01*
X145735Y447057D01*
X145004Y446496D01*
X144443Y445765D01*
X144090Y444914D01*
X143970Y444000D01*
Y439000D01*
X144090Y438086D01*
X144443Y437235D01*
X145004Y436504D01*
X145735Y435943D01*
X146586Y435590D01*
X147500Y435470D01*
X148414Y435590D01*
X149265Y435943D01*
X149996Y436504D01*
X150557Y437235D01*
X150910Y438086D01*
X151030Y439000D01*
Y444000D01*
X150910Y444914D01*
X150557Y445765D01*
X149996Y446496D01*
X149265Y447057D01*
X148414Y447410D01*
X147500Y447530D01*
D02*
G37*
G36*
X137500D02*
X136586Y447410D01*
X135735Y447057D01*
X135004Y446496D01*
X134443Y445765D01*
X134090Y444914D01*
X133970Y444000D01*
Y439000D01*
X134090Y438086D01*
X134443Y437235D01*
X135004Y436504D01*
X135735Y435943D01*
X136586Y435590D01*
X137500Y435470D01*
X138414Y435590D01*
X139265Y435943D01*
X139996Y436504D01*
X140557Y437235D01*
X140910Y438086D01*
X141030Y439000D01*
Y444000D01*
X140910Y444914D01*
X140557Y445765D01*
X139996Y446496D01*
X139265Y447057D01*
X138414Y447410D01*
X137500Y447530D01*
D02*
G37*
G36*
X99500Y436199D02*
Y433500D01*
X102199D01*
X101819Y434416D01*
X101210Y435210D01*
X100416Y435819D01*
X99500Y436199D01*
D02*
G37*
G36*
X97500D02*
X96584Y435819D01*
X95790Y435210D01*
X95181Y434416D01*
X94801Y433500D01*
X97500D01*
Y436199D01*
D02*
G37*
G36*
X102199Y431500D02*
X99500D01*
Y428801D01*
X100416Y429181D01*
X101210Y429790D01*
X101819Y430584D01*
X102199Y431500D01*
D02*
G37*
G36*
X97500D02*
X94801D01*
X95181Y430584D01*
X95790Y429790D01*
X96584Y429181D01*
X97500Y428801D01*
Y431500D01*
D02*
G37*
G36*
X339795Y429199D02*
Y426500D01*
X342494D01*
X342115Y427416D01*
X341506Y428210D01*
X340712Y428819D01*
X339795Y429199D01*
D02*
G37*
G36*
X337795D02*
X336879Y428819D01*
X336085Y428210D01*
X335476Y427416D01*
X335097Y426500D01*
X337795D01*
Y429199D01*
D02*
G37*
G36*
X320386D02*
Y426500D01*
X323085D01*
X322706Y427416D01*
X322096Y428210D01*
X321303Y428819D01*
X320386Y429199D01*
D02*
G37*
G36*
X318386D02*
X317470Y428819D01*
X316676Y428210D01*
X316067Y427416D01*
X315687Y426500D01*
X318386D01*
Y429199D01*
D02*
G37*
G36*
X300977D02*
Y426500D01*
X303676D01*
X303296Y427416D01*
X302687Y428210D01*
X301894Y428819D01*
X300977Y429199D01*
D02*
G37*
G36*
X298977D02*
X298061Y428819D01*
X297267Y428210D01*
X296658Y427416D01*
X296278Y426500D01*
X298977D01*
Y429199D01*
D02*
G37*
G36*
X281568D02*
Y426500D01*
X284267D01*
X283888Y427416D01*
X283278Y428210D01*
X282485Y428819D01*
X281568Y429199D01*
D02*
G37*
G36*
X279568D02*
X278652Y428819D01*
X277858Y428210D01*
X277249Y427416D01*
X276869Y426500D01*
X279568D01*
Y429199D01*
D02*
G37*
G36*
X262159D02*
Y426500D01*
X264858D01*
X264478Y427416D01*
X263869Y428210D01*
X263075Y428819D01*
X262159Y429199D01*
D02*
G37*
G36*
X260159D02*
X259243Y428819D01*
X258449Y428210D01*
X257840Y427416D01*
X257460Y426500D01*
X260159D01*
Y429199D01*
D02*
G37*
G36*
X242750D02*
Y426500D01*
X245449D01*
X245069Y427416D01*
X244460Y428210D01*
X243666Y428819D01*
X242750Y429199D01*
D02*
G37*
G36*
X240750D02*
X239834Y428819D01*
X239040Y428210D01*
X238431Y427416D01*
X238051Y426500D01*
X240750D01*
Y429199D01*
D02*
G37*
G36*
X223341D02*
Y426500D01*
X226040D01*
X225660Y427416D01*
X225051Y428210D01*
X224257Y428819D01*
X223341Y429199D01*
D02*
G37*
G36*
X221341D02*
X220425Y428819D01*
X219631Y428210D01*
X219022Y427416D01*
X218642Y426500D01*
X221341D01*
Y429199D01*
D02*
G37*
G36*
X203932D02*
Y426500D01*
X206631D01*
X206251Y427416D01*
X205642Y428210D01*
X204848Y428819D01*
X203932Y429199D01*
D02*
G37*
G36*
X201932D02*
X201015Y428819D01*
X200222Y428210D01*
X199612Y427416D01*
X199233Y426500D01*
X201932D01*
Y429199D01*
D02*
G37*
G36*
X184523D02*
Y426500D01*
X187222D01*
X186842Y427416D01*
X186233Y428210D01*
X185439Y428819D01*
X184523Y429199D01*
D02*
G37*
G36*
X182523D02*
X181606Y428819D01*
X180813Y428210D01*
X180203Y427416D01*
X179824Y426500D01*
X182523D01*
Y429199D01*
D02*
G37*
G36*
X165114D02*
Y426500D01*
X167813D01*
X167433Y427416D01*
X166824Y428210D01*
X166030Y428819D01*
X165114Y429199D01*
D02*
G37*
G36*
X163114D02*
X162197Y428819D01*
X161403Y428210D01*
X160794Y427416D01*
X160415Y426500D01*
X163114D01*
Y429199D01*
D02*
G37*
G36*
X145704D02*
Y426500D01*
X148403D01*
X148024Y427416D01*
X147415Y428210D01*
X146621Y428819D01*
X145704Y429199D01*
D02*
G37*
G36*
X143704D02*
X142788Y428819D01*
X141994Y428210D01*
X141385Y427416D01*
X141006Y426500D01*
X143704D01*
Y429199D01*
D02*
G37*
G36*
X323085Y424500D02*
X320386D01*
Y421801D01*
X321303Y422181D01*
X322096Y422790D01*
X322706Y423584D01*
X323085Y424500D01*
D02*
G37*
G36*
X318386D02*
X315687D01*
X316067Y423584D01*
X316676Y422790D01*
X317470Y422181D01*
X318386Y421801D01*
Y424500D01*
D02*
G37*
G36*
X284267D02*
X281568D01*
Y421801D01*
X282485Y422181D01*
X283278Y422790D01*
X283888Y423584D01*
X284267Y424500D01*
D02*
G37*
G36*
X279568D02*
X276869D01*
X277249Y423584D01*
X277858Y422790D01*
X278652Y422181D01*
X279568Y421801D01*
Y424500D01*
D02*
G37*
G36*
X245449D02*
X242750D01*
Y421801D01*
X243666Y422181D01*
X244460Y422790D01*
X245069Y423584D01*
X245449Y424500D01*
D02*
G37*
G36*
X240750D02*
X238051D01*
X238431Y423584D01*
X239040Y422790D01*
X239834Y422181D01*
X240750Y421801D01*
Y424500D01*
D02*
G37*
G36*
X206631D02*
X203932D01*
Y421801D01*
X204848Y422181D01*
X205642Y422790D01*
X206251Y423584D01*
X206631Y424500D01*
D02*
G37*
G36*
X201932D02*
X199233D01*
X199612Y423584D01*
X200222Y422790D01*
X201015Y422181D01*
X201932Y421801D01*
Y424500D01*
D02*
G37*
G36*
X167813D02*
X165114D01*
Y421801D01*
X166030Y422181D01*
X166824Y422790D01*
X167433Y423584D01*
X167813Y424500D01*
D02*
G37*
G36*
X163114D02*
X160415D01*
X160794Y423584D01*
X161403Y422790D01*
X162197Y422181D01*
X163114Y421801D01*
Y424500D01*
D02*
G37*
G36*
X342494D02*
X339795D01*
Y421801D01*
X340712Y422181D01*
X341506Y422790D01*
X342115Y423584D01*
X342494Y424500D01*
D02*
G37*
G36*
X337795D02*
X335097D01*
X335476Y423584D01*
X336085Y422790D01*
X336879Y422181D01*
X337795Y421801D01*
Y424500D01*
D02*
G37*
G36*
X303676D02*
X300977D01*
Y421801D01*
X301894Y422181D01*
X302687Y422790D01*
X303296Y423584D01*
X303676Y424500D01*
D02*
G37*
G36*
X298977D02*
X296278D01*
X296658Y423584D01*
X297267Y422790D01*
X298061Y422181D01*
X298977Y421801D01*
Y424500D01*
D02*
G37*
G36*
X264858D02*
X262159D01*
Y421801D01*
X263075Y422181D01*
X263869Y422790D01*
X264478Y423584D01*
X264858Y424500D01*
D02*
G37*
G36*
X260159D02*
X257460D01*
X257840Y423584D01*
X258449Y422790D01*
X259243Y422181D01*
X260159Y421801D01*
Y424500D01*
D02*
G37*
G36*
X226040D02*
X223341D01*
Y421801D01*
X224257Y422181D01*
X225051Y422790D01*
X225660Y423584D01*
X226040Y424500D01*
D02*
G37*
G36*
X221341D02*
X218642D01*
X219022Y423584D01*
X219631Y422790D01*
X220425Y422181D01*
X221341Y421801D01*
Y424500D01*
D02*
G37*
G36*
X187222D02*
X184523D01*
Y421801D01*
X185439Y422181D01*
X186233Y422790D01*
X186842Y423584D01*
X187222Y424500D01*
D02*
G37*
G36*
X182523D02*
X179824D01*
X180203Y423584D01*
X180813Y422790D01*
X181606Y422181D01*
X182523Y421801D01*
Y424500D01*
D02*
G37*
G36*
X148403D02*
X145704D01*
Y421801D01*
X146621Y422181D01*
X147415Y422790D01*
X148024Y423584D01*
X148403Y424500D01*
D02*
G37*
G36*
X143704D02*
X141006D01*
X141385Y423584D01*
X141994Y422790D01*
X142788Y422181D01*
X143704Y421801D01*
Y424500D01*
D02*
G37*
G36*
X99500Y420899D02*
Y418200D01*
X102199D01*
X101819Y419116D01*
X101210Y419910D01*
X100416Y420519D01*
X99500Y420899D01*
D02*
G37*
G36*
X97500D02*
X96584Y420519D01*
X95790Y419910D01*
X95181Y419116D01*
X94801Y418200D01*
X97500D01*
Y420899D01*
D02*
G37*
G36*
X102199Y416200D02*
X99500D01*
Y413501D01*
X100416Y413881D01*
X101210Y414490D01*
X101819Y415284D01*
X102199Y416200D01*
D02*
G37*
G36*
X97500D02*
X94801D01*
X95181Y415284D01*
X95790Y414490D01*
X96584Y413881D01*
X97500Y413501D01*
Y416200D01*
D02*
G37*
G36*
X99500Y405599D02*
Y402900D01*
X102199D01*
X101819Y403816D01*
X101210Y404610D01*
X100416Y405219D01*
X99500Y405599D01*
D02*
G37*
G36*
X97500D02*
X96584Y405219D01*
X95790Y404610D01*
X95181Y403816D01*
X94801Y402900D01*
X97500D01*
Y405599D01*
D02*
G37*
G36*
X330091Y404699D02*
Y402000D01*
X332790D01*
X332410Y402916D01*
X331801Y403710D01*
X331007Y404319D01*
X330091Y404699D01*
D02*
G37*
G36*
X328091D02*
X327174Y404319D01*
X326381Y403710D01*
X325772Y402916D01*
X325392Y402000D01*
X328091D01*
Y404699D01*
D02*
G37*
G36*
X291273D02*
Y402000D01*
X293972D01*
X293592Y402916D01*
X292983Y403710D01*
X292189Y404319D01*
X291273Y404699D01*
D02*
G37*
G36*
X289273D02*
X288356Y404319D01*
X287562Y403710D01*
X286953Y402916D01*
X286574Y402000D01*
X289273D01*
Y404699D01*
D02*
G37*
G36*
X271864D02*
Y402000D01*
X274563D01*
X274183Y402916D01*
X273574Y403710D01*
X272780Y404319D01*
X271864Y404699D01*
D02*
G37*
G36*
X269864D02*
X268947Y404319D01*
X268153Y403710D01*
X267544Y402916D01*
X267165Y402000D01*
X269864D01*
Y404699D01*
D02*
G37*
G36*
X252454D02*
Y402000D01*
X255153D01*
X254774Y402916D01*
X254165Y403710D01*
X253371Y404319D01*
X252454Y404699D01*
D02*
G37*
G36*
X250454D02*
X249538Y404319D01*
X248744Y403710D01*
X248135Y402916D01*
X247756Y402000D01*
X250454D01*
Y404699D01*
D02*
G37*
G36*
X233045D02*
Y402000D01*
X235744D01*
X235365Y402916D01*
X234756Y403710D01*
X233962Y404319D01*
X233045Y404699D01*
D02*
G37*
G36*
X231045D02*
X230129Y404319D01*
X229335Y403710D01*
X228726Y402916D01*
X228347Y402000D01*
X231045D01*
Y404699D01*
D02*
G37*
G36*
X213636D02*
Y402000D01*
X216335D01*
X215956Y402916D01*
X215347Y403710D01*
X214553Y404319D01*
X213636Y404699D01*
D02*
G37*
G36*
X211636D02*
X210720Y404319D01*
X209926Y403710D01*
X209317Y402916D01*
X208938Y402000D01*
X211636D01*
Y404699D01*
D02*
G37*
G36*
X194227D02*
Y402000D01*
X196926D01*
X196547Y402916D01*
X195938Y403710D01*
X195144Y404319D01*
X194227Y404699D01*
D02*
G37*
G36*
X192227D02*
X191311Y404319D01*
X190517Y403710D01*
X189908Y402916D01*
X189528Y402000D01*
X192227D01*
Y404699D01*
D02*
G37*
G36*
X174818D02*
Y402000D01*
X177517D01*
X177137Y402916D01*
X176528Y403710D01*
X175735Y404319D01*
X174818Y404699D01*
D02*
G37*
G36*
X172818D02*
X171902Y404319D01*
X171108Y403710D01*
X170499Y402916D01*
X170119Y402000D01*
X172818D01*
Y404699D01*
D02*
G37*
G36*
X155409D02*
Y402000D01*
X158108D01*
X157728Y402916D01*
X157119Y403710D01*
X156325Y404319D01*
X155409Y404699D01*
D02*
G37*
G36*
X153409D02*
X152493Y404319D01*
X151699Y403710D01*
X151090Y402916D01*
X150710Y402000D01*
X153409D01*
Y404699D01*
D02*
G37*
G36*
X136000D02*
Y402000D01*
X138699D01*
X138319Y402916D01*
X137710Y403710D01*
X136916Y404319D01*
X136000Y404699D01*
D02*
G37*
G36*
X134000D02*
X133084Y404319D01*
X132290Y403710D01*
X131681Y402916D01*
X131301Y402000D01*
X134000D01*
Y404699D01*
D02*
G37*
G36*
X102199Y400900D02*
X99500D01*
Y398201D01*
X100416Y398581D01*
X101210Y399190D01*
X101819Y399984D01*
X102199Y400900D01*
D02*
G37*
G36*
X97500D02*
X94801D01*
X95181Y399984D01*
X95790Y399190D01*
X96584Y398581D01*
X97500Y398201D01*
Y400900D01*
D02*
G37*
G36*
X274563Y400000D02*
X271864D01*
Y397301D01*
X272780Y397681D01*
X273574Y398290D01*
X274183Y399084D01*
X274563Y400000D01*
D02*
G37*
G36*
X269864D02*
X267165D01*
X267544Y399084D01*
X268153Y398290D01*
X268947Y397681D01*
X269864Y397301D01*
Y400000D01*
D02*
G37*
G36*
X235744D02*
X233045D01*
Y397301D01*
X233962Y397681D01*
X234756Y398290D01*
X235365Y399084D01*
X235744Y400000D01*
D02*
G37*
G36*
X231045D02*
X228347D01*
X228726Y399084D01*
X229335Y398290D01*
X230129Y397681D01*
X231045Y397301D01*
Y400000D01*
D02*
G37*
G36*
X196926D02*
X194227D01*
Y397301D01*
X195144Y397681D01*
X195938Y398290D01*
X196547Y399084D01*
X196926Y400000D01*
D02*
G37*
G36*
X192227D02*
X189528D01*
X189908Y399084D01*
X190517Y398290D01*
X191311Y397681D01*
X192227Y397301D01*
Y400000D01*
D02*
G37*
G36*
X332790D02*
X330091D01*
Y397301D01*
X331007Y397681D01*
X331801Y398290D01*
X332410Y399084D01*
X332790Y400000D01*
D02*
G37*
G36*
X328091D02*
X325392D01*
X325772Y399084D01*
X326381Y398290D01*
X327174Y397681D01*
X328091Y397301D01*
Y400000D01*
D02*
G37*
G36*
X293972D02*
X291273D01*
Y397301D01*
X292189Y397681D01*
X292983Y398290D01*
X293592Y399084D01*
X293972Y400000D01*
D02*
G37*
G36*
X289273D02*
X286574D01*
X286953Y399084D01*
X287562Y398290D01*
X288356Y397681D01*
X289273Y397301D01*
Y400000D01*
D02*
G37*
G36*
X255153D02*
X252454D01*
Y397301D01*
X253371Y397681D01*
X254165Y398290D01*
X254774Y399084D01*
X255153Y400000D01*
D02*
G37*
G36*
X250454D02*
X247756D01*
X248135Y399084D01*
X248744Y398290D01*
X249538Y397681D01*
X250454Y397301D01*
Y400000D01*
D02*
G37*
G36*
X216335D02*
X213636D01*
Y397301D01*
X214553Y397681D01*
X215347Y398290D01*
X215956Y399084D01*
X216335Y400000D01*
D02*
G37*
G36*
X211636D02*
X208938D01*
X209317Y399084D01*
X209926Y398290D01*
X210720Y397681D01*
X211636Y397301D01*
Y400000D01*
D02*
G37*
G36*
X177517D02*
X174818D01*
Y397301D01*
X175735Y397681D01*
X176528Y398290D01*
X177137Y399084D01*
X177517Y400000D01*
D02*
G37*
G36*
X172818D02*
X170119D01*
X170499Y399084D01*
X171108Y398290D01*
X171902Y397681D01*
X172818Y397301D01*
Y400000D01*
D02*
G37*
G36*
X158108D02*
X155409D01*
Y397301D01*
X156325Y397681D01*
X157119Y398290D01*
X157728Y399084D01*
X158108Y400000D01*
D02*
G37*
G36*
X153409D02*
X150710D01*
X151090Y399084D01*
X151699Y398290D01*
X152493Y397681D01*
X153409Y397301D01*
Y400000D01*
D02*
G37*
G36*
X138699D02*
X136000D01*
Y397301D01*
X136916Y397681D01*
X137710Y398290D01*
X138319Y399084D01*
X138699Y400000D01*
D02*
G37*
G36*
X134000D02*
X131301D01*
X131681Y399084D01*
X132290Y398290D01*
X133084Y397681D01*
X134000Y397301D01*
Y400000D01*
D02*
G37*
G36*
X309682Y404833D02*
X308690Y404702D01*
X307765Y404319D01*
X306972Y403710D01*
X306363Y402916D01*
X305980Y401992D01*
X305849Y401000D01*
X305980Y400008D01*
X306363Y399084D01*
X306972Y398290D01*
X307765Y397681D01*
X308690Y397298D01*
X309682Y397167D01*
X310674Y397298D01*
X311598Y397681D01*
X312392Y398290D01*
X313001Y399084D01*
X313384Y400008D01*
X313515Y401000D01*
X313384Y401992D01*
X313001Y402916D01*
X312392Y403710D01*
X311598Y404319D01*
X310674Y404702D01*
X309682Y404833D01*
D02*
G37*
G36*
X99500Y390299D02*
Y387600D01*
X102199D01*
X101819Y388516D01*
X101210Y389310D01*
X100416Y389919D01*
X99500Y390299D01*
D02*
G37*
G36*
X97500D02*
X96584Y389919D01*
X95790Y389310D01*
X95181Y388516D01*
X94801Y387600D01*
X97500D01*
Y390299D01*
D02*
G37*
G36*
X102199Y385600D02*
X99500D01*
Y382901D01*
X100416Y383281D01*
X101210Y383890D01*
X101819Y384684D01*
X102199Y385600D01*
D02*
G37*
G36*
X97500D02*
X94801D01*
X95181Y384684D01*
X95790Y383890D01*
X96584Y383281D01*
X97500Y382901D01*
Y385600D01*
D02*
G37*
G36*
X121000Y387500D02*
X118500D01*
Y382500D01*
X121000D01*
Y387500D01*
D02*
G37*
G36*
X116500D02*
X114000D01*
Y382500D01*
X116500D01*
Y387500D01*
D02*
G37*
G36*
X121000Y380500D02*
X118500D01*
Y375500D01*
X121000D01*
Y380500D01*
D02*
G37*
G36*
X116500D02*
X114000D01*
Y375500D01*
X116500D01*
Y380500D01*
D02*
G37*
G36*
X347500Y387530D02*
X346586Y387410D01*
X345735Y387057D01*
X345004Y386496D01*
X344443Y385765D01*
X344090Y384914D01*
X343970Y384000D01*
Y379000D01*
X344090Y378086D01*
X344443Y377235D01*
X345004Y376504D01*
X345735Y375943D01*
X346586Y375590D01*
X347500Y375470D01*
X348414Y375590D01*
X349265Y375943D01*
X349996Y376504D01*
X350557Y377235D01*
X350910Y378086D01*
X351030Y379000D01*
Y384000D01*
X350910Y384914D01*
X350557Y385765D01*
X349996Y386496D01*
X349265Y387057D01*
X348414Y387410D01*
X347500Y387530D01*
D02*
G37*
G36*
X247500D02*
X246586Y387410D01*
X245735Y387057D01*
X245004Y386496D01*
X244443Y385765D01*
X244090Y384914D01*
X243970Y384000D01*
Y379000D01*
X244090Y378086D01*
X244443Y377235D01*
X245004Y376504D01*
X245735Y375943D01*
X246586Y375590D01*
X247500Y375470D01*
X248414Y375590D01*
X249265Y375943D01*
X249996Y376504D01*
X250557Y377235D01*
X250910Y378086D01*
X251030Y379000D01*
Y384000D01*
X250910Y384914D01*
X250557Y385765D01*
X249996Y386496D01*
X249265Y387057D01*
X248414Y387410D01*
X247500Y387530D01*
D02*
G37*
G36*
X237500D02*
X236586Y387410D01*
X235735Y387057D01*
X235004Y386496D01*
X234443Y385765D01*
X234090Y384914D01*
X233970Y384000D01*
Y379000D01*
X234090Y378086D01*
X234443Y377235D01*
X235004Y376504D01*
X235735Y375943D01*
X236586Y375590D01*
X237500Y375470D01*
X238414Y375590D01*
X239265Y375943D01*
X239996Y376504D01*
X240557Y377235D01*
X240910Y378086D01*
X241030Y379000D01*
Y384000D01*
X240910Y384914D01*
X240557Y385765D01*
X239996Y386496D01*
X239265Y387057D01*
X238414Y387410D01*
X237500Y387530D01*
D02*
G37*
G36*
X227500D02*
X226586Y387410D01*
X225735Y387057D01*
X225004Y386496D01*
X224443Y385765D01*
X224090Y384914D01*
X223970Y384000D01*
Y379000D01*
X224090Y378086D01*
X224443Y377235D01*
X225004Y376504D01*
X225735Y375943D01*
X226586Y375590D01*
X227500Y375470D01*
X228414Y375590D01*
X229265Y375943D01*
X229996Y376504D01*
X230557Y377235D01*
X230910Y378086D01*
X231030Y379000D01*
Y384000D01*
X230910Y384914D01*
X230557Y385765D01*
X229996Y386496D01*
X229265Y387057D01*
X228414Y387410D01*
X227500Y387530D01*
D02*
G37*
G36*
X217500D02*
X216586Y387410D01*
X215735Y387057D01*
X215004Y386496D01*
X214443Y385765D01*
X214090Y384914D01*
X213970Y384000D01*
Y379000D01*
X214090Y378086D01*
X214443Y377235D01*
X215004Y376504D01*
X215735Y375943D01*
X216586Y375590D01*
X217500Y375470D01*
X218414Y375590D01*
X219265Y375943D01*
X219996Y376504D01*
X220557Y377235D01*
X220910Y378086D01*
X221030Y379000D01*
Y384000D01*
X220910Y384914D01*
X220557Y385765D01*
X219996Y386496D01*
X219265Y387057D01*
X218414Y387410D01*
X217500Y387530D01*
D02*
G37*
G36*
X207500D02*
X206586Y387410D01*
X205735Y387057D01*
X205004Y386496D01*
X204443Y385765D01*
X204090Y384914D01*
X203970Y384000D01*
Y379000D01*
X204090Y378086D01*
X204443Y377235D01*
X205004Y376504D01*
X205735Y375943D01*
X206586Y375590D01*
X207500Y375470D01*
X208414Y375590D01*
X209265Y375943D01*
X209996Y376504D01*
X210557Y377235D01*
X210910Y378086D01*
X211030Y379000D01*
Y384000D01*
X210910Y384914D01*
X210557Y385765D01*
X209996Y386496D01*
X209265Y387057D01*
X208414Y387410D01*
X207500Y387530D01*
D02*
G37*
G36*
X197500D02*
X196586Y387410D01*
X195735Y387057D01*
X195004Y386496D01*
X194443Y385765D01*
X194090Y384914D01*
X193970Y384000D01*
Y379000D01*
X194090Y378086D01*
X194443Y377235D01*
X195004Y376504D01*
X195735Y375943D01*
X196586Y375590D01*
X197500Y375470D01*
X198414Y375590D01*
X199265Y375943D01*
X199996Y376504D01*
X200557Y377235D01*
X200910Y378086D01*
X201030Y379000D01*
Y384000D01*
X200910Y384914D01*
X200557Y385765D01*
X199996Y386496D01*
X199265Y387057D01*
X198414Y387410D01*
X197500Y387530D01*
D02*
G37*
G36*
X187500D02*
X186586Y387410D01*
X185735Y387057D01*
X185004Y386496D01*
X184443Y385765D01*
X184090Y384914D01*
X183970Y384000D01*
Y379000D01*
X184090Y378086D01*
X184443Y377235D01*
X185004Y376504D01*
X185735Y375943D01*
X186586Y375590D01*
X187500Y375470D01*
X188414Y375590D01*
X189265Y375943D01*
X189996Y376504D01*
X190557Y377235D01*
X190910Y378086D01*
X191030Y379000D01*
Y384000D01*
X190910Y384914D01*
X190557Y385765D01*
X189996Y386496D01*
X189265Y387057D01*
X188414Y387410D01*
X187500Y387530D01*
D02*
G37*
G36*
X177500D02*
X176586Y387410D01*
X175735Y387057D01*
X175004Y386496D01*
X174443Y385765D01*
X174090Y384914D01*
X173970Y384000D01*
Y379000D01*
X174090Y378086D01*
X174443Y377235D01*
X175004Y376504D01*
X175735Y375943D01*
X176586Y375590D01*
X177500Y375470D01*
X178414Y375590D01*
X179265Y375943D01*
X179996Y376504D01*
X180557Y377235D01*
X180910Y378086D01*
X181030Y379000D01*
Y384000D01*
X180910Y384914D01*
X180557Y385765D01*
X179996Y386496D01*
X179265Y387057D01*
X178414Y387410D01*
X177500Y387530D01*
D02*
G37*
G36*
X167500D02*
X166586Y387410D01*
X165735Y387057D01*
X165004Y386496D01*
X164443Y385765D01*
X164090Y384914D01*
X163970Y384000D01*
Y379000D01*
X164090Y378086D01*
X164443Y377235D01*
X165004Y376504D01*
X165735Y375943D01*
X166586Y375590D01*
X167500Y375470D01*
X168414Y375590D01*
X169265Y375943D01*
X169996Y376504D01*
X170557Y377235D01*
X170910Y378086D01*
X171030Y379000D01*
Y384000D01*
X170910Y384914D01*
X170557Y385765D01*
X169996Y386496D01*
X169265Y387057D01*
X168414Y387410D01*
X167500Y387530D01*
D02*
G37*
G36*
X157500D02*
X156586Y387410D01*
X155735Y387057D01*
X155004Y386496D01*
X154443Y385765D01*
X154090Y384914D01*
X153970Y384000D01*
Y379000D01*
X154090Y378086D01*
X154443Y377235D01*
X155004Y376504D01*
X155735Y375943D01*
X156586Y375590D01*
X157500Y375470D01*
X158414Y375590D01*
X159265Y375943D01*
X159996Y376504D01*
X160557Y377235D01*
X160910Y378086D01*
X161030Y379000D01*
Y384000D01*
X160910Y384914D01*
X160557Y385765D01*
X159996Y386496D01*
X159265Y387057D01*
X158414Y387410D01*
X157500Y387530D01*
D02*
G37*
G36*
X147500D02*
X146586Y387410D01*
X145735Y387057D01*
X145004Y386496D01*
X144443Y385765D01*
X144090Y384914D01*
X143970Y384000D01*
Y379000D01*
X144090Y378086D01*
X144443Y377235D01*
X145004Y376504D01*
X145735Y375943D01*
X146586Y375590D01*
X147500Y375470D01*
X148414Y375590D01*
X149265Y375943D01*
X149996Y376504D01*
X150557Y377235D01*
X150910Y378086D01*
X151030Y379000D01*
Y384000D01*
X150910Y384914D01*
X150557Y385765D01*
X149996Y386496D01*
X149265Y387057D01*
X148414Y387410D01*
X147500Y387530D01*
D02*
G37*
G36*
X137500D02*
X136586Y387410D01*
X135735Y387057D01*
X135004Y386496D01*
X134443Y385765D01*
X134090Y384914D01*
X133970Y384000D01*
Y379000D01*
X134090Y378086D01*
X134443Y377235D01*
X135004Y376504D01*
X135735Y375943D01*
X136586Y375590D01*
X137500Y375470D01*
X138414Y375590D01*
X139265Y375943D01*
X139996Y376504D01*
X140557Y377235D01*
X140910Y378086D01*
X141030Y379000D01*
Y384000D01*
X140910Y384914D01*
X140557Y385765D01*
X139996Y386496D01*
X139265Y387057D01*
X138414Y387410D01*
X137500Y387530D01*
D02*
G37*
G36*
X127500D02*
X126586Y387410D01*
X125735Y387057D01*
X125004Y386496D01*
X124443Y385765D01*
X124090Y384914D01*
X123970Y384000D01*
Y379000D01*
X124090Y378086D01*
X124443Y377235D01*
X125004Y376504D01*
X125735Y375943D01*
X126586Y375590D01*
X127500Y375470D01*
X128414Y375590D01*
X129265Y375943D01*
X129996Y376504D01*
X130557Y377235D01*
X130910Y378086D01*
X131030Y379000D01*
Y384000D01*
X130910Y384914D01*
X130557Y385765D01*
X129996Y386496D01*
X129265Y387057D01*
X128414Y387410D01*
X127500Y387530D01*
D02*
G37*
G36*
X99500Y374999D02*
Y372300D01*
X102199D01*
X101819Y373216D01*
X101210Y374010D01*
X100416Y374619D01*
X99500Y374999D01*
D02*
G37*
G36*
X97500D02*
X96584Y374619D01*
X95790Y374010D01*
X95181Y373216D01*
X94801Y372300D01*
X97500D01*
Y374999D01*
D02*
G37*
G36*
X102199Y370300D02*
X99500D01*
Y367601D01*
X100416Y367981D01*
X101210Y368590D01*
X101819Y369384D01*
X102199Y370300D01*
D02*
G37*
G36*
X97500D02*
X94801D01*
X95181Y369384D01*
X95790Y368590D01*
X96584Y367981D01*
X97500Y367601D01*
Y370300D01*
D02*
G37*
G36*
X99500Y359699D02*
Y357000D01*
X102199D01*
X101819Y357916D01*
X101210Y358710D01*
X100416Y359319D01*
X99500Y359699D01*
D02*
G37*
G36*
X97500D02*
X96584Y359319D01*
X95790Y358710D01*
X95181Y357916D01*
X94801Y357000D01*
X97500D01*
Y359699D01*
D02*
G37*
G36*
X277500Y387530D02*
X276586Y387410D01*
X275735Y387057D01*
X275004Y386496D01*
X274443Y385765D01*
X274090Y384914D01*
X273970Y384000D01*
Y379000D01*
X274090Y378086D01*
X274443Y377235D01*
X275004Y376504D01*
X275735Y375943D01*
X275971Y375845D01*
Y354633D01*
X273745Y352408D01*
X272800Y352533D01*
X271808Y352402D01*
X270884Y352019D01*
X270090Y351410D01*
X269481Y350616D01*
X269098Y349692D01*
X268967Y348700D01*
X269098Y347708D01*
X269481Y346784D01*
X270090Y345990D01*
X270884Y345381D01*
X271808Y344998D01*
X272800Y344867D01*
X273792Y344998D01*
X274716Y345381D01*
X275510Y345990D01*
X276119Y346784D01*
X276502Y347708D01*
X276633Y348700D01*
X276502Y349692D01*
X276166Y350503D01*
X278581Y352919D01*
X278913Y353415D01*
X279029Y354000D01*
Y375845D01*
X279265Y375943D01*
X279996Y376504D01*
X280557Y377235D01*
X280910Y378086D01*
X281030Y379000D01*
Y384000D01*
X280910Y384914D01*
X280557Y385765D01*
X279996Y386496D01*
X279265Y387057D01*
X278414Y387410D01*
X277500Y387530D01*
D02*
G37*
G36*
X102199Y355000D02*
X99500D01*
Y352301D01*
X100416Y352681D01*
X101210Y353290D01*
X101819Y354084D01*
X102199Y355000D01*
D02*
G37*
G36*
X97500D02*
X94801D01*
X95181Y354084D01*
X95790Y353290D01*
X96584Y352681D01*
X97500Y352301D01*
Y355000D01*
D02*
G37*
G36*
X267500Y387530D02*
X266586Y387410D01*
X265735Y387057D01*
X265004Y386496D01*
X264443Y385765D01*
X264090Y384914D01*
X263970Y384000D01*
Y379000D01*
X264010Y378697D01*
X263971Y378500D01*
X264087Y377915D01*
X264282Y377623D01*
X264443Y377235D01*
X265004Y376504D01*
X265735Y375943D01*
X265971Y375845D01*
Y358980D01*
X265584Y358819D01*
X264790Y358210D01*
X264181Y357416D01*
X263798Y356492D01*
X263667Y355500D01*
X263798Y354508D01*
X264181Y353584D01*
X264790Y352790D01*
X265584Y352181D01*
X266508Y351798D01*
X267500Y351667D01*
X268492Y351798D01*
X269416Y352181D01*
X270210Y352790D01*
X270819Y353584D01*
X271202Y354508D01*
X271333Y355500D01*
X271202Y356492D01*
X270819Y357416D01*
X270210Y358210D01*
X269416Y358819D01*
X269029Y358980D01*
Y375845D01*
X269265Y375943D01*
X269996Y376504D01*
X270557Y377235D01*
X270910Y378086D01*
X271030Y379000D01*
Y384000D01*
X270910Y384914D01*
X270557Y385765D01*
X269996Y386496D01*
X269265Y387057D01*
X268414Y387410D01*
X267500Y387530D01*
D02*
G37*
G36*
X287500D02*
X286586Y387410D01*
X285735Y387057D01*
X285004Y386496D01*
X284443Y385765D01*
X284090Y384914D01*
X283970Y384000D01*
Y379000D01*
X284090Y378086D01*
X284443Y377235D01*
X285004Y376504D01*
X285735Y375943D01*
X285971Y375845D01*
Y351934D01*
X279479Y345442D01*
X279092Y345602D01*
X278100Y345733D01*
X277108Y345602D01*
X276184Y345219D01*
X275390Y344610D01*
X274781Y343816D01*
X274398Y342892D01*
X274267Y341900D01*
X274398Y340908D01*
X274781Y339984D01*
X275390Y339190D01*
X276184Y338581D01*
X277108Y338198D01*
X278100Y338067D01*
X279092Y338198D01*
X280016Y338581D01*
X280810Y339190D01*
X281419Y339984D01*
X281802Y340908D01*
X281933Y341900D01*
X281802Y342892D01*
X281642Y343279D01*
X288581Y350219D01*
X288913Y350715D01*
X289029Y351300D01*
Y375845D01*
X289265Y375943D01*
X289996Y376504D01*
X290557Y377235D01*
X290910Y378086D01*
X291030Y379000D01*
Y384000D01*
X290910Y384914D01*
X290557Y385765D01*
X289996Y386496D01*
X289265Y387057D01*
X288414Y387410D01*
X287500Y387530D01*
D02*
G37*
G36*
X297500D02*
X296586Y387410D01*
X295735Y387057D01*
X295004Y386496D01*
X294443Y385765D01*
X294090Y384914D01*
X293970Y384000D01*
Y379000D01*
X294090Y378086D01*
X294443Y377235D01*
X295004Y376504D01*
X295735Y375943D01*
X295971Y375845D01*
Y349833D01*
X284779Y338642D01*
X284392Y338802D01*
X283400Y338933D01*
X282408Y338802D01*
X281484Y338419D01*
X280690Y337810D01*
X280081Y337016D01*
X279698Y336092D01*
X279567Y335100D01*
X279698Y334108D01*
X280081Y333184D01*
X280690Y332390D01*
X281484Y331781D01*
X282408Y331398D01*
X283400Y331267D01*
X284392Y331398D01*
X285316Y331781D01*
X286110Y332390D01*
X286719Y333184D01*
X287102Y334108D01*
X287233Y335100D01*
X287102Y336092D01*
X286942Y336479D01*
X298581Y348119D01*
X298913Y348615D01*
X299029Y349200D01*
Y375845D01*
X299265Y375943D01*
X299996Y376504D01*
X300557Y377235D01*
X300910Y378086D01*
X301030Y379000D01*
Y384000D01*
X300910Y384914D01*
X300557Y385765D01*
X299996Y386496D01*
X299265Y387057D01*
X298414Y387410D01*
X297500Y387530D01*
D02*
G37*
G36*
X307500D02*
X306586Y387410D01*
X305735Y387057D01*
X305004Y386496D01*
X304443Y385765D01*
X304090Y384914D01*
X303970Y384000D01*
Y379000D01*
X304090Y378086D01*
X304443Y377235D01*
X305004Y376504D01*
X305735Y375943D01*
X305971Y375845D01*
Y347733D01*
X290079Y331842D01*
X289692Y332002D01*
X288700Y332133D01*
X287708Y332002D01*
X286784Y331619D01*
X285990Y331010D01*
X285381Y330216D01*
X284998Y329292D01*
X284867Y328300D01*
X284998Y327308D01*
X285381Y326384D01*
X285990Y325590D01*
X286784Y324981D01*
X287708Y324598D01*
X288700Y324467D01*
X289692Y324598D01*
X290616Y324981D01*
X291410Y325590D01*
X292019Y326384D01*
X292402Y327308D01*
X292533Y328300D01*
X292402Y329292D01*
X292242Y329679D01*
X308581Y346019D01*
X308913Y346515D01*
X308932Y346612D01*
X309029Y347100D01*
Y375845D01*
X309265Y375943D01*
X309996Y376504D01*
X310557Y377235D01*
X310910Y378086D01*
X311030Y379000D01*
Y384000D01*
X310910Y384914D01*
X310557Y385765D01*
X309996Y386496D01*
X309265Y387057D01*
X308414Y387410D01*
X307500Y387530D01*
D02*
G37*
G36*
X331000Y316199D02*
Y313500D01*
X333699D01*
X333319Y314416D01*
X332710Y315210D01*
X331916Y315819D01*
X331000Y316199D01*
D02*
G37*
G36*
X329000D02*
X328084Y315819D01*
X327290Y315210D01*
X326681Y314416D01*
X326301Y313500D01*
X329000D01*
Y316199D01*
D02*
G37*
G36*
X366000Y314500D02*
X363145D01*
X363149Y314468D01*
X363547Y313507D01*
X364181Y312681D01*
X365007Y312047D01*
X365968Y311649D01*
X366000Y311645D01*
Y314500D01*
D02*
G37*
G36*
X333699Y311500D02*
X331000D01*
Y308801D01*
X331916Y309181D01*
X332710Y309790D01*
X333319Y310584D01*
X333699Y311500D01*
D02*
G37*
G36*
X329000D02*
X326301D01*
X326681Y310584D01*
X327290Y309790D01*
X328084Y309181D01*
X329000Y308801D01*
Y311500D01*
D02*
G37*
G36*
X312500Y316333D02*
X311508Y316202D01*
X310584Y315819D01*
X309790Y315210D01*
X309181Y314416D01*
X308798Y313492D01*
X308667Y312500D01*
X308798Y311508D01*
X309181Y310584D01*
X309790Y309790D01*
X310584Y309181D01*
X311508Y308798D01*
X312500Y308667D01*
X313492Y308798D01*
X314416Y309181D01*
X315210Y309790D01*
X315819Y310584D01*
X316202Y311508D01*
X316333Y312500D01*
X316202Y313492D01*
X315819Y314416D01*
X315210Y315210D01*
X314416Y315819D01*
X313492Y316202D01*
X312500Y316333D01*
D02*
G37*
G36*
X331000Y302699D02*
Y300000D01*
X333699D01*
X333319Y300916D01*
X332710Y301710D01*
X331916Y302319D01*
X331000Y302699D01*
D02*
G37*
G36*
X329000D02*
X328084Y302319D01*
X327290Y301710D01*
X326681Y300916D01*
X326301Y300000D01*
X329000D01*
Y302699D01*
D02*
G37*
G36*
X313500D02*
Y300000D01*
X316199D01*
X315819Y300916D01*
X315210Y301710D01*
X314416Y302319D01*
X313500Y302699D01*
D02*
G37*
G36*
X311500D02*
X310584Y302319D01*
X309790Y301710D01*
X309181Y300916D01*
X308801Y300000D01*
X311500D01*
Y302699D01*
D02*
G37*
G36*
X333699Y298000D02*
X331000D01*
Y295301D01*
X331916Y295681D01*
X332710Y296290D01*
X333319Y297084D01*
X333699Y298000D01*
D02*
G37*
G36*
X329000D02*
X326301D01*
X326681Y297084D01*
X327290Y296290D01*
X328084Y295681D01*
X329000Y295301D01*
Y298000D01*
D02*
G37*
G36*
X316199D02*
X313500D01*
Y295301D01*
X314416Y295681D01*
X315210Y296290D01*
X315819Y297084D01*
X316199Y298000D01*
D02*
G37*
G36*
X311500D02*
X308801D01*
X309181Y297084D01*
X309790Y296290D01*
X310584Y295681D01*
X311500Y295301D01*
Y298000D01*
D02*
G37*
G36*
X323700Y289148D02*
X322524Y289032D01*
X321393Y288689D01*
X320351Y288131D01*
X319437Y287382D01*
X318687Y286468D01*
X318130Y285426D01*
X317787Y284295D01*
X317671Y283119D01*
X317787Y281942D01*
X318130Y280811D01*
X318687Y279769D01*
X319437Y278855D01*
X320351Y278106D01*
X321393Y277549D01*
X322524Y277205D01*
X323700Y277090D01*
X324876Y277205D01*
X326007Y277549D01*
X327049Y278106D01*
X327963Y278855D01*
X328713Y279769D01*
X329270Y280811D01*
X329613Y281942D01*
X329729Y283119D01*
X329613Y284295D01*
X329270Y285426D01*
X328713Y286468D01*
X327963Y287382D01*
X327049Y288131D01*
X326007Y288689D01*
X324876Y289032D01*
X323700Y289148D01*
D02*
G37*
G36*
X354000Y277903D02*
X353956Y277897D01*
X352983Y277494D01*
X352147Y276853D01*
X351506Y276017D01*
X351103Y275044D01*
X351097Y275000D01*
X354000D01*
Y277903D01*
D02*
G37*
G36*
X233000Y340640D02*
X231799Y340482D01*
X230680Y340018D01*
X229719Y339281D01*
X228982Y338320D01*
X228518Y337201D01*
X228360Y336000D01*
X228518Y334799D01*
X228982Y333680D01*
X229719Y332719D01*
X230680Y331982D01*
X231799Y331518D01*
X233000Y331360D01*
X234201Y331518D01*
X235320Y331982D01*
X236281Y332719D01*
X237018Y333680D01*
X237482Y334799D01*
X237640Y336000D01*
X237482Y337201D01*
X237018Y338320D01*
X236281Y339281D01*
X235320Y340018D01*
X234201Y340482D01*
X233000Y340640D01*
D02*
G37*
G36*
X115000D02*
X113799Y340482D01*
X112680Y340018D01*
X111719Y339281D01*
X110982Y338320D01*
X110518Y337201D01*
X110360Y336000D01*
X110518Y334799D01*
X110982Y333680D01*
X111719Y332719D01*
X112680Y331982D01*
X113799Y331518D01*
X115000Y331360D01*
X116201Y331518D01*
X117320Y331982D01*
X118281Y332719D01*
X119018Y333680D01*
X119482Y334799D01*
X119640Y336000D01*
X119482Y337201D01*
X119018Y338320D01*
X118281Y339281D01*
X117320Y340018D01*
X116201Y340482D01*
X115000Y340640D01*
D02*
G37*
G36*
X210000Y337531D02*
X208726Y337406D01*
X207501Y337034D01*
X206371Y336431D01*
X205382Y335618D01*
X204569Y334629D01*
X203966Y333500D01*
X203594Y332274D01*
X203469Y331000D01*
X203594Y329726D01*
X203966Y328501D01*
X204569Y327371D01*
X205382Y326382D01*
X206371Y325569D01*
X207501Y324966D01*
X208726Y324594D01*
X210000Y324469D01*
X211274Y324594D01*
X212499Y324966D01*
X213629Y325569D01*
X214618Y326382D01*
X215431Y327371D01*
X216034Y328501D01*
X216406Y329726D01*
X216531Y331000D01*
X216406Y332274D01*
X216034Y333500D01*
X215431Y334629D01*
X214618Y335618D01*
X213629Y336431D01*
X212499Y337034D01*
X211274Y337406D01*
X210000Y337531D01*
D02*
G37*
G36*
X233000Y330640D02*
X231799Y330482D01*
X230680Y330018D01*
X229719Y329281D01*
X228982Y328320D01*
X228518Y327201D01*
X228360Y326000D01*
X228518Y324799D01*
X228982Y323680D01*
X229719Y322719D01*
X230680Y321982D01*
X231799Y321518D01*
X233000Y321360D01*
X234201Y321518D01*
X235320Y321982D01*
X236281Y322719D01*
X237018Y323680D01*
X237482Y324799D01*
X237640Y326000D01*
X237482Y327201D01*
X237018Y328320D01*
X236281Y329281D01*
X235320Y330018D01*
X234201Y330482D01*
X233000Y330640D01*
D02*
G37*
G36*
X115000D02*
X113799Y330482D01*
X112680Y330018D01*
X111719Y329281D01*
X110982Y328320D01*
X110518Y327201D01*
X110360Y326000D01*
X110518Y324799D01*
X110982Y323680D01*
X111719Y322719D01*
X112680Y321982D01*
X113799Y321518D01*
X115000Y321360D01*
X116201Y321518D01*
X117320Y321982D01*
X118281Y322719D01*
X119018Y323680D01*
X119482Y324799D01*
X119640Y326000D01*
X119482Y327201D01*
X119018Y328320D01*
X118281Y329281D01*
X117320Y330018D01*
X116201Y330482D01*
X115000Y330640D01*
D02*
G37*
G36*
X247600Y320600D02*
X244000D01*
Y317000D01*
X247600D01*
Y320600D01*
D02*
G37*
G36*
X232000Y320508D02*
X231799Y320482D01*
X230680Y320018D01*
X229719Y319281D01*
X228982Y318320D01*
X228518Y317201D01*
X228492Y317000D01*
X232000D01*
Y320508D01*
D02*
G37*
G36*
X129600Y320600D02*
X126000D01*
Y317000D01*
X129600D01*
Y320600D01*
D02*
G37*
G36*
X114000Y320508D02*
X113799Y320482D01*
X112680Y320018D01*
X111719Y319281D01*
X110982Y318320D01*
X110518Y317201D01*
X110492Y317000D01*
X114000D01*
Y320508D01*
D02*
G37*
G36*
X234000D02*
Y316000D01*
Y311492D01*
X234201Y311518D01*
X235320Y311982D01*
X236281Y312719D01*
X237018Y313680D01*
X237482Y314799D01*
X237640Y316000D01*
X237482Y317201D01*
X237018Y318320D01*
X236281Y319281D01*
X235320Y320018D01*
X234201Y320482D01*
X234000Y320508D01*
D02*
G37*
G36*
X232000Y315000D02*
X228492D01*
X228518Y314799D01*
X228982Y313680D01*
X229719Y312719D01*
X230680Y311982D01*
X231799Y311518D01*
X232000Y311492D01*
Y315000D01*
D02*
G37*
G36*
X116000Y320508D02*
Y316000D01*
Y311492D01*
X116201Y311518D01*
X117320Y311982D01*
X118281Y312719D01*
X119018Y313680D01*
X119482Y314799D01*
X119640Y316000D01*
X119482Y317201D01*
X119018Y318320D01*
X118281Y319281D01*
X117320Y320018D01*
X116201Y320482D01*
X116000Y320508D01*
D02*
G37*
G36*
X114000Y315000D02*
X110492D01*
X110518Y314799D01*
X110982Y313680D01*
X111719Y312719D01*
X112680Y311982D01*
X113799Y311518D01*
X114000Y311492D01*
Y315000D01*
D02*
G37*
G36*
X247600D02*
X244000D01*
Y311400D01*
X247600D01*
Y315000D01*
D02*
G37*
G36*
X242000Y320600D02*
X238400D01*
Y311400D01*
X242000D01*
Y316000D01*
Y320600D01*
D02*
G37*
G36*
X129600Y315000D02*
X126000D01*
Y311400D01*
X129600D01*
Y315000D01*
D02*
G37*
G36*
X124000Y320600D02*
X120400D01*
Y311400D01*
X124000D01*
Y316000D01*
Y320600D01*
D02*
G37*
G36*
X184167Y311699D02*
Y309000D01*
X186865D01*
X186486Y309916D01*
X185877Y310710D01*
X185083Y311319D01*
X184167Y311699D01*
D02*
G37*
G36*
X182167D02*
X181250Y311319D01*
X180456Y310710D01*
X179847Y309916D01*
X179468Y309000D01*
X182167D01*
Y311699D01*
D02*
G37*
G36*
X186865Y307000D02*
X184167D01*
Y304301D01*
X185083Y304681D01*
X185877Y305290D01*
X186486Y306084D01*
X186865Y307000D01*
D02*
G37*
G36*
X182167D02*
X179468D01*
X179847Y306084D01*
X180456Y305290D01*
X181250Y304681D01*
X182167Y304301D01*
Y307000D01*
D02*
G37*
G36*
X197000Y298199D02*
Y295500D01*
X199699D01*
X199319Y296416D01*
X198710Y297210D01*
X197916Y297819D01*
X197000Y298199D01*
D02*
G37*
G36*
X195000D02*
X194084Y297819D01*
X193290Y297210D01*
X192681Y296416D01*
X192301Y295500D01*
X195000D01*
Y298199D01*
D02*
G37*
G36*
X184167D02*
Y295500D01*
X186865D01*
X186486Y296416D01*
X185877Y297210D01*
X185083Y297819D01*
X184167Y298199D01*
D02*
G37*
G36*
X182167D02*
X181250Y297819D01*
X180456Y297210D01*
X179847Y296416D01*
X179468Y295500D01*
X182167D01*
Y298199D01*
D02*
G37*
G36*
X171333D02*
Y295500D01*
X174032D01*
X173653Y296416D01*
X173044Y297210D01*
X172250Y297819D01*
X171333Y298199D01*
D02*
G37*
G36*
X169333D02*
X168417Y297819D01*
X167623Y297210D01*
X167014Y296416D01*
X166634Y295500D01*
X169333D01*
Y298199D01*
D02*
G37*
G36*
X233000Y300640D02*
X231799Y300482D01*
X230680Y300018D01*
X229719Y299281D01*
X228982Y298320D01*
X228518Y297201D01*
X228360Y296000D01*
X228518Y294799D01*
X228982Y293680D01*
X229719Y292719D01*
X230680Y291982D01*
X231799Y291518D01*
X233000Y291360D01*
X234201Y291518D01*
X235320Y291982D01*
X236281Y292719D01*
X237018Y293680D01*
X237482Y294799D01*
X237640Y296000D01*
X237482Y297201D01*
X237018Y298320D01*
X236281Y299281D01*
X235320Y300018D01*
X234201Y300482D01*
X233000Y300640D01*
D02*
G37*
G36*
X115000D02*
X113799Y300482D01*
X112680Y300018D01*
X111719Y299281D01*
X110982Y298320D01*
X110518Y297201D01*
X110360Y296000D01*
X110518Y294799D01*
X110982Y293680D01*
X111719Y292719D01*
X112680Y291982D01*
X113799Y291518D01*
X115000Y291360D01*
X116201Y291518D01*
X117320Y291982D01*
X118281Y292719D01*
X119018Y293680D01*
X119482Y294799D01*
X119640Y296000D01*
X119482Y297201D01*
X119018Y298320D01*
X118281Y299281D01*
X117320Y300018D01*
X116201Y300482D01*
X115000Y300640D01*
D02*
G37*
G36*
X199699Y293500D02*
X197000D01*
Y290801D01*
X197916Y291181D01*
X198710Y291790D01*
X199319Y292584D01*
X199699Y293500D01*
D02*
G37*
G36*
X195000D02*
X192301D01*
X192681Y292584D01*
X193290Y291790D01*
X194084Y291181D01*
X195000Y290801D01*
Y293500D01*
D02*
G37*
G36*
X174032D02*
X171333D01*
Y290801D01*
X172250Y291181D01*
X173044Y291790D01*
X173653Y292584D01*
X174032Y293500D01*
D02*
G37*
G36*
X169333D02*
X166634D01*
X167014Y292584D01*
X167623Y291790D01*
X168417Y291181D01*
X169333Y290801D01*
Y293500D01*
D02*
G37*
G36*
X186865D02*
X184167D01*
Y290801D01*
X185083Y291181D01*
X185877Y291790D01*
X186486Y292584D01*
X186865Y293500D01*
D02*
G37*
G36*
X182167D02*
X179468D01*
X179847Y292584D01*
X180456Y291790D01*
X181250Y291181D01*
X182167Y290801D01*
Y293500D01*
D02*
G37*
G36*
X171333Y284699D02*
Y282000D01*
X174032D01*
X173653Y282916D01*
X173044Y283710D01*
X172250Y284319D01*
X171333Y284699D01*
D02*
G37*
G36*
X169333D02*
X168417Y284319D01*
X167623Y283710D01*
X167014Y282916D01*
X166634Y282000D01*
X169333D01*
Y284699D01*
D02*
G37*
G36*
X158500D02*
Y282000D01*
X161199D01*
X160819Y282916D01*
X160210Y283710D01*
X159416Y284319D01*
X158500Y284699D01*
D02*
G37*
G36*
X156500D02*
X155584Y284319D01*
X154790Y283710D01*
X154181Y282916D01*
X153801Y282000D01*
X156500D01*
Y284699D01*
D02*
G37*
G36*
X233000Y290640D02*
X231799Y290482D01*
X230680Y290018D01*
X229719Y289281D01*
X228982Y288320D01*
X228518Y287201D01*
X228360Y286000D01*
X228518Y284799D01*
X228982Y283680D01*
X229719Y282719D01*
X230680Y281982D01*
X231799Y281518D01*
X233000Y281360D01*
X234201Y281518D01*
X235320Y281982D01*
X236281Y282719D01*
X237018Y283680D01*
X237482Y284799D01*
X237640Y286000D01*
X237482Y287201D01*
X237018Y288320D01*
X236281Y289281D01*
X235320Y290018D01*
X234201Y290482D01*
X233000Y290640D01*
D02*
G37*
G36*
X115000D02*
X113799Y290482D01*
X112680Y290018D01*
X111719Y289281D01*
X110982Y288320D01*
X110518Y287201D01*
X110360Y286000D01*
X110518Y284799D01*
X110982Y283680D01*
X111719Y282719D01*
X112680Y281982D01*
X113799Y281518D01*
X115000Y281360D01*
X116201Y281518D01*
X117320Y281982D01*
X118281Y282719D01*
X119018Y283680D01*
X119482Y284799D01*
X119640Y286000D01*
X119482Y287201D01*
X119018Y288320D01*
X118281Y289281D01*
X117320Y290018D01*
X116201Y290482D01*
X115000Y290640D01*
D02*
G37*
G36*
X174032Y280000D02*
X171333D01*
Y277301D01*
X172250Y277681D01*
X173044Y278290D01*
X173653Y279084D01*
X174032Y280000D01*
D02*
G37*
G36*
X169333D02*
X166634D01*
X167014Y279084D01*
X167623Y278290D01*
X168417Y277681D01*
X169333Y277301D01*
Y280000D01*
D02*
G37*
G36*
X161199D02*
X158500D01*
Y277301D01*
X159416Y277681D01*
X160210Y278290D01*
X160819Y279084D01*
X161199Y280000D01*
D02*
G37*
G36*
X156500D02*
X153801D01*
X154181Y279084D01*
X154790Y278290D01*
X155584Y277681D01*
X156500Y277301D01*
Y280000D01*
D02*
G37*
G36*
X205700Y289148D02*
X204524Y289032D01*
X203393Y288689D01*
X202350Y288131D01*
X201437Y287382D01*
X200687Y286468D01*
X200130Y285426D01*
X199787Y284295D01*
X199671Y283119D01*
X199787Y281942D01*
X200130Y280811D01*
X200687Y279769D01*
X201437Y278855D01*
X202350Y278106D01*
X203393Y277549D01*
X204524Y277205D01*
X205700Y277090D01*
X206876Y277205D01*
X208007Y277549D01*
X209050Y278106D01*
X209963Y278855D01*
X210713Y279769D01*
X211270Y280811D01*
X211613Y281942D01*
X211729Y283119D01*
X211613Y284295D01*
X211270Y285426D01*
X210713Y286468D01*
X209963Y287382D01*
X209050Y288131D01*
X208007Y288689D01*
X206876Y289032D01*
X205700Y289148D01*
D02*
G37*
G36*
X234000Y280508D02*
Y277000D01*
X237508D01*
X237482Y277201D01*
X237018Y278320D01*
X236281Y279281D01*
X235320Y280018D01*
X234201Y280482D01*
X234000Y280508D01*
D02*
G37*
G36*
X232000D02*
X231799Y280482D01*
X230680Y280018D01*
X229719Y279281D01*
X228982Y278320D01*
X228518Y277201D01*
X228492Y277000D01*
X232000D01*
Y280508D01*
D02*
G37*
G36*
X116000D02*
Y277000D01*
X119508D01*
X119482Y277201D01*
X119018Y278320D01*
X118281Y279281D01*
X117320Y280018D01*
X116201Y280482D01*
X116000Y280508D01*
D02*
G37*
G36*
X114000D02*
X113799Y280482D01*
X112680Y280018D01*
X111719Y279281D01*
X110982Y278320D01*
X110518Y277201D01*
X110492Y277000D01*
X114000D01*
Y280508D01*
D02*
G37*
G36*
X237508Y275000D02*
X234000D01*
Y271492D01*
X234201Y271518D01*
X235320Y271982D01*
X236281Y272719D01*
X237018Y273680D01*
X237482Y274799D01*
X237508Y275000D01*
D02*
G37*
G36*
X232000D02*
X228492D01*
X228518Y274799D01*
X228982Y273680D01*
X229719Y272719D01*
X230680Y271982D01*
X231799Y271518D01*
X232000Y271492D01*
Y275000D01*
D02*
G37*
G36*
X119508D02*
X116000D01*
Y271492D01*
X116201Y271518D01*
X117320Y271982D01*
X118281Y272719D01*
X119018Y273680D01*
X119482Y274799D01*
X119508Y275000D01*
D02*
G37*
G36*
X114000D02*
X110492D01*
X110518Y274799D01*
X110982Y273680D01*
X111719Y272719D01*
X112680Y271982D01*
X113799Y271518D01*
X114000Y271492D01*
Y275000D01*
D02*
G37*
G36*
X243000Y280640D02*
X241799Y280482D01*
X240680Y280018D01*
X239719Y279281D01*
X238982Y278320D01*
X238518Y277201D01*
X238360Y276000D01*
X238518Y274799D01*
X238982Y273680D01*
X239719Y272719D01*
X240680Y271982D01*
X241799Y271518D01*
X243000Y271360D01*
X244201Y271518D01*
X245320Y271982D01*
X246281Y272719D01*
X247018Y273680D01*
X247482Y274799D01*
X247640Y276000D01*
X247482Y277201D01*
X247018Y278320D01*
X246281Y279281D01*
X245320Y280018D01*
X244201Y280482D01*
X243000Y280640D01*
D02*
G37*
G36*
X125000D02*
X123799Y280482D01*
X122680Y280018D01*
X121719Y279281D01*
X120982Y278320D01*
X120518Y277201D01*
X120360Y276000D01*
X120518Y274799D01*
X120982Y273680D01*
X121719Y272719D01*
X122680Y271982D01*
X123799Y271518D01*
X125000Y271360D01*
X126201Y271518D01*
X127320Y271982D01*
X128281Y272719D01*
X129018Y273680D01*
X129482Y274799D01*
X129640Y276000D01*
X129482Y277201D01*
X129018Y278320D01*
X128281Y279281D01*
X127320Y280018D01*
X126201Y280482D01*
X125000Y280640D01*
D02*
G37*
G36*
X158500Y268699D02*
Y266000D01*
X161199D01*
X160819Y266916D01*
X160210Y267710D01*
X159416Y268319D01*
X158500Y268699D01*
D02*
G37*
G36*
X156500D02*
X155584Y268319D01*
X154790Y267710D01*
X154181Y266916D01*
X153801Y266000D01*
X156500D01*
Y268699D01*
D02*
G37*
G36*
X161199Y264000D02*
X158500D01*
Y261301D01*
X159416Y261681D01*
X160210Y262290D01*
X160819Y263084D01*
X161199Y264000D01*
D02*
G37*
G36*
X156500D02*
X153801D01*
X154181Y263084D01*
X154790Y262290D01*
X155584Y261681D01*
X156500Y261301D01*
Y264000D01*
D02*
G37*
G36*
X115000Y250640D02*
X113799Y250482D01*
X112680Y250018D01*
X111719Y249281D01*
X110982Y248320D01*
X110518Y247201D01*
X110360Y246000D01*
X110518Y244799D01*
X110982Y243680D01*
X111719Y242719D01*
X112680Y241982D01*
X113799Y241518D01*
X115000Y241360D01*
X116201Y241518D01*
X117320Y241982D01*
X118281Y242719D01*
X119018Y243680D01*
X119482Y244799D01*
X119640Y246000D01*
X119482Y247201D01*
X119018Y248320D01*
X118281Y249281D01*
X117320Y250018D01*
X116201Y250482D01*
X115000Y250640D01*
D02*
G37*
G36*
X186000Y242699D02*
Y240000D01*
X188699D01*
X188319Y240916D01*
X187710Y241710D01*
X186916Y242319D01*
X186000Y242699D01*
D02*
G37*
G36*
X184000D02*
X183084Y242319D01*
X182290Y241710D01*
X181681Y240916D01*
X181301Y240000D01*
X184000D01*
Y242699D01*
D02*
G37*
G36*
X188699Y238000D02*
X186000D01*
Y235301D01*
X186916Y235681D01*
X187710Y236290D01*
X188319Y237084D01*
X188699Y238000D01*
D02*
G37*
G36*
X184000D02*
X181301D01*
X181681Y237084D01*
X182290Y236290D01*
X183084Y235681D01*
X184000Y235301D01*
Y238000D01*
D02*
G37*
G36*
X176000Y234127D02*
Y231429D01*
X178699D01*
X178319Y232345D01*
X177710Y233139D01*
X176916Y233748D01*
X176000Y234127D01*
D02*
G37*
G36*
X174000D02*
X173084Y233748D01*
X172290Y233139D01*
X171681Y232345D01*
X171301Y231429D01*
X174000D01*
Y234127D01*
D02*
G37*
G36*
X115000Y240640D02*
X113799Y240482D01*
X112680Y240018D01*
X111719Y239281D01*
X110982Y238320D01*
X110518Y237201D01*
X110360Y236000D01*
X110518Y234799D01*
X110982Y233680D01*
X111719Y232719D01*
X112680Y231982D01*
X113799Y231518D01*
X115000Y231360D01*
X116201Y231518D01*
X117320Y231982D01*
X118281Y232719D01*
X119018Y233680D01*
X119482Y234799D01*
X119640Y236000D01*
X119482Y237201D01*
X119018Y238320D01*
X118281Y239281D01*
X117320Y240018D01*
X116201Y240482D01*
X115000Y240640D01*
D02*
G37*
G36*
X129600Y230600D02*
X126000D01*
Y227000D01*
X129600D01*
Y230600D01*
D02*
G37*
G36*
X114000Y230508D02*
X113799Y230482D01*
X112680Y230018D01*
X111719Y229281D01*
X110982Y228320D01*
X110518Y227201D01*
X110492Y227000D01*
X114000D01*
Y230508D01*
D02*
G37*
G36*
X178699Y229429D02*
X176000D01*
Y226730D01*
X176916Y227109D01*
X177710Y227718D01*
X178319Y228512D01*
X178699Y229429D01*
D02*
G37*
G36*
X174000D02*
X171301D01*
X171681Y228512D01*
X172290Y227718D01*
X173084Y227109D01*
X174000Y226730D01*
Y229429D01*
D02*
G37*
G36*
X186000Y225556D02*
Y222857D01*
X188699D01*
X188319Y223774D01*
X187710Y224567D01*
X186916Y225176D01*
X186000Y225556D01*
D02*
G37*
G36*
X184000D02*
X183084Y225176D01*
X182290Y224567D01*
X181681Y223774D01*
X181301Y222857D01*
X184000D01*
Y225556D01*
D02*
G37*
G36*
X116000Y230508D02*
Y226000D01*
Y221492D01*
X116201Y221518D01*
X117320Y221982D01*
X118281Y222719D01*
X119018Y223680D01*
X119482Y224799D01*
X119640Y226000D01*
X119482Y227201D01*
X119018Y228320D01*
X118281Y229281D01*
X117320Y230018D01*
X116201Y230482D01*
X116000Y230508D01*
D02*
G37*
G36*
X114000Y225000D02*
X110492D01*
X110518Y224799D01*
X110982Y223680D01*
X111719Y222719D01*
X112680Y221982D01*
X113799Y221518D01*
X114000Y221492D01*
Y225000D01*
D02*
G37*
G36*
X129600D02*
X126000D01*
Y221400D01*
X129600D01*
Y225000D01*
D02*
G37*
G36*
X124000Y230600D02*
X120400D01*
Y221400D01*
X124000D01*
Y226000D01*
Y230600D01*
D02*
G37*
G36*
X188699Y220857D02*
X186000D01*
Y218158D01*
X186916Y218538D01*
X187710Y219147D01*
X188319Y219941D01*
X188699Y220857D01*
D02*
G37*
G36*
X184000D02*
X181301D01*
X181681Y219941D01*
X182290Y219147D01*
X183084Y218538D01*
X184000Y218158D01*
Y220857D01*
D02*
G37*
G36*
X176000Y216985D02*
Y214286D01*
X178699D01*
X178319Y215202D01*
X177710Y215996D01*
X176916Y216605D01*
X176000Y216985D01*
D02*
G37*
G36*
X174000D02*
X173084Y216605D01*
X172290Y215996D01*
X171681Y215202D01*
X171301Y214286D01*
X174000D01*
Y216985D01*
D02*
G37*
G36*
X178699Y212286D02*
X176000D01*
Y209587D01*
X176916Y209966D01*
X177710Y210576D01*
X178319Y211369D01*
X178699Y212286D01*
D02*
G37*
G36*
X174000D02*
X171301D01*
X171681Y211369D01*
X172290Y210576D01*
X173084Y209966D01*
X174000Y209587D01*
Y212286D01*
D02*
G37*
G36*
X186000Y208413D02*
Y205714D01*
X188699D01*
X188319Y206631D01*
X187710Y207424D01*
X186916Y208034D01*
X186000Y208413D01*
D02*
G37*
G36*
X184000D02*
X183084Y208034D01*
X182290Y207424D01*
X181681Y206631D01*
X181301Y205714D01*
X184000D01*
Y208413D01*
D02*
G37*
G36*
X115000Y210640D02*
X113799Y210482D01*
X112680Y210018D01*
X111719Y209281D01*
X110982Y208320D01*
X110518Y207201D01*
X110360Y206000D01*
X110518Y204799D01*
X110982Y203680D01*
X111719Y202719D01*
X112680Y201982D01*
X113799Y201518D01*
X115000Y201360D01*
X116201Y201518D01*
X117320Y201982D01*
X118281Y202719D01*
X119018Y203680D01*
X119482Y204799D01*
X119640Y206000D01*
X119482Y207201D01*
X119018Y208320D01*
X118281Y209281D01*
X117320Y210018D01*
X116201Y210482D01*
X115000Y210640D01*
D02*
G37*
G36*
X188699Y203714D02*
X186000D01*
Y201015D01*
X186916Y201395D01*
X187710Y202004D01*
X188319Y202798D01*
X188699Y203714D01*
D02*
G37*
G36*
X184000D02*
X181301D01*
X181681Y202798D01*
X182290Y202004D01*
X183084Y201395D01*
X184000Y201015D01*
Y203714D01*
D02*
G37*
G36*
X147000Y200199D02*
Y197500D01*
X149699D01*
X149319Y198416D01*
X148710Y199210D01*
X147916Y199819D01*
X147000Y200199D01*
D02*
G37*
G36*
X145000D02*
X144084Y199819D01*
X143290Y199210D01*
X142681Y198416D01*
X142301Y197500D01*
X145000D01*
Y200199D01*
D02*
G37*
G36*
X176000Y199842D02*
Y197143D01*
X178699D01*
X178319Y198059D01*
X177710Y198853D01*
X176916Y199462D01*
X176000Y199842D01*
D02*
G37*
G36*
X174000D02*
X173084Y199462D01*
X172290Y198853D01*
X171681Y198059D01*
X171301Y197143D01*
X174000D01*
Y199842D01*
D02*
G37*
G36*
X149699Y195500D02*
X147000D01*
Y192801D01*
X147916Y193181D01*
X148710Y193790D01*
X149319Y194584D01*
X149699Y195500D01*
D02*
G37*
G36*
X145000D02*
X142301D01*
X142681Y194584D01*
X143290Y193790D01*
X144084Y193181D01*
X145000Y192801D01*
Y195500D01*
D02*
G37*
G36*
X178699Y195143D02*
X176000D01*
Y192444D01*
X176916Y192824D01*
X177710Y193433D01*
X178319Y194226D01*
X178699Y195143D01*
D02*
G37*
G36*
X174000D02*
X171301D01*
X171681Y194226D01*
X172290Y193433D01*
X173084Y192824D01*
X174000Y192444D01*
Y195143D01*
D02*
G37*
G36*
X115000Y200640D02*
X113799Y200482D01*
X112680Y200018D01*
X111719Y199281D01*
X110982Y198320D01*
X110518Y197201D01*
X110360Y196000D01*
X110518Y194799D01*
X110982Y193680D01*
X111719Y192719D01*
X112680Y191982D01*
X113799Y191518D01*
X115000Y191360D01*
X116201Y191518D01*
X117320Y191982D01*
X118281Y192719D01*
X119018Y193680D01*
X119482Y194799D01*
X119640Y196000D01*
X119482Y197201D01*
X119018Y198320D01*
X118281Y199281D01*
X117320Y200018D01*
X116201Y200482D01*
X115000Y200640D01*
D02*
G37*
G36*
X135500Y192199D02*
Y189500D01*
X138199D01*
X137819Y190416D01*
X137210Y191210D01*
X136416Y191819D01*
X135500Y192199D01*
D02*
G37*
G36*
X133500D02*
X132584Y191819D01*
X131790Y191210D01*
X131181Y190416D01*
X130801Y189500D01*
X133500D01*
Y192199D01*
D02*
G37*
G36*
X186000Y191270D02*
Y188571D01*
X188699D01*
X188319Y189488D01*
X187710Y190282D01*
X186916Y190891D01*
X186000Y191270D01*
D02*
G37*
G36*
X184000D02*
X183084Y190891D01*
X182290Y190282D01*
X181681Y189488D01*
X181301Y188571D01*
X184000D01*
Y191270D01*
D02*
G37*
G36*
X138199Y187500D02*
X135500D01*
Y184801D01*
X136416Y185181D01*
X137210Y185790D01*
X137819Y186584D01*
X138199Y187500D01*
D02*
G37*
G36*
X133500D02*
X130801D01*
X131181Y186584D01*
X131790Y185790D01*
X132584Y185181D01*
X133500Y184801D01*
Y187500D01*
D02*
G37*
G36*
X188699Y186571D02*
X186000D01*
Y183872D01*
X186916Y184252D01*
X187710Y184861D01*
X188319Y185655D01*
X188699Y186571D01*
D02*
G37*
G36*
X184000D02*
X181301D01*
X181681Y185655D01*
X182290Y184861D01*
X183084Y184252D01*
X184000Y183872D01*
Y186571D01*
D02*
G37*
G36*
X147000Y184199D02*
Y181500D01*
X149699D01*
X149319Y182416D01*
X148710Y183210D01*
X147916Y183819D01*
X147000Y184199D01*
D02*
G37*
G36*
X145000D02*
X144084Y183819D01*
X143290Y183210D01*
X142681Y182416D01*
X142301Y181500D01*
X145000D01*
Y184199D01*
D02*
G37*
G36*
X176000Y182699D02*
Y180000D01*
X178699D01*
X178319Y180916D01*
X177710Y181710D01*
X176916Y182319D01*
X176000Y182699D01*
D02*
G37*
G36*
X174000D02*
X173084Y182319D01*
X172290Y181710D01*
X171681Y180916D01*
X171301Y180000D01*
X174000D01*
Y182699D01*
D02*
G37*
G36*
X119600Y180600D02*
X116000D01*
Y177000D01*
X119600D01*
Y180600D01*
D02*
G37*
G36*
X114000D02*
X110400D01*
Y177000D01*
X114000D01*
Y180600D01*
D02*
G37*
G36*
X149699Y179500D02*
X147000D01*
Y176801D01*
X147916Y177181D01*
X148710Y177790D01*
X149319Y178584D01*
X149699Y179500D01*
D02*
G37*
G36*
X145000D02*
X142301D01*
X142681Y178584D01*
X143290Y177790D01*
X144084Y177181D01*
X145000Y176801D01*
Y179500D01*
D02*
G37*
G36*
X178699Y178000D02*
X176000D01*
Y175301D01*
X176916Y175681D01*
X177710Y176290D01*
X178319Y177084D01*
X178699Y178000D01*
D02*
G37*
G36*
X174000D02*
X171301D01*
X171681Y177084D01*
X172290Y176290D01*
X173084Y175681D01*
X174000Y175301D01*
Y178000D01*
D02*
G37*
G36*
X323700Y261828D02*
X322524Y261712D01*
X321393Y261369D01*
X320351Y260812D01*
X319437Y260062D01*
X318687Y259149D01*
X318130Y258106D01*
X317787Y256975D01*
X317770Y256799D01*
X329630D01*
X329613Y256975D01*
X329270Y258106D01*
X328713Y259149D01*
X327963Y260062D01*
X327049Y260812D01*
X326007Y261369D01*
X324876Y261712D01*
X323700Y261828D01*
D02*
G37*
G36*
X205700D02*
X204524Y261712D01*
X203393Y261369D01*
X202350Y260812D01*
X201437Y260062D01*
X200687Y259149D01*
X200130Y258106D01*
X199787Y256975D01*
X199769Y256799D01*
X211631D01*
X211613Y256975D01*
X211270Y258106D01*
X210713Y259149D01*
X209963Y260062D01*
X209050Y260812D01*
X208007Y261369D01*
X206876Y261712D01*
X205700Y261828D01*
D02*
G37*
G36*
X243000Y260640D02*
X241799Y260482D01*
X240680Y260018D01*
X239719Y259281D01*
X238982Y258320D01*
X238518Y257201D01*
X238360Y256000D01*
X238518Y254799D01*
X238982Y253680D01*
X239719Y252719D01*
X240680Y251982D01*
X241799Y251518D01*
X243000Y251360D01*
X244201Y251518D01*
X245320Y251982D01*
X246281Y252719D01*
X247018Y253680D01*
X247482Y254799D01*
X247640Y256000D01*
X247482Y257201D01*
X247018Y258320D01*
X246281Y259281D01*
X245320Y260018D01*
X244201Y260482D01*
X243000Y260640D01*
D02*
G37*
G36*
X233000D02*
X231799Y260482D01*
X230680Y260018D01*
X229719Y259281D01*
X228982Y258320D01*
X228518Y257201D01*
X228360Y256000D01*
X228518Y254799D01*
X228982Y253680D01*
X229719Y252719D01*
X230680Y251982D01*
X231799Y251518D01*
X233000Y251360D01*
X234201Y251518D01*
X235320Y251982D01*
X236281Y252719D01*
X237018Y253680D01*
X237482Y254799D01*
X237640Y256000D01*
X237482Y257201D01*
X237018Y258320D01*
X236281Y259281D01*
X235320Y260018D01*
X234201Y260482D01*
X233000Y260640D01*
D02*
G37*
G36*
X329630Y254799D02*
X324700D01*
Y249868D01*
X324876Y249886D01*
X326007Y250229D01*
X327049Y250786D01*
X327963Y251536D01*
X328713Y252449D01*
X329270Y253492D01*
X329613Y254623D01*
X329630Y254799D01*
D02*
G37*
G36*
X322700D02*
X317770D01*
X317787Y254623D01*
X318130Y253492D01*
X318687Y252449D01*
X319437Y251536D01*
X320351Y250786D01*
X321393Y250229D01*
X322524Y249886D01*
X322700Y249868D01*
Y254799D01*
D02*
G37*
G36*
X211631D02*
X206700D01*
Y249868D01*
X206876Y249886D01*
X208007Y250229D01*
X209050Y250786D01*
X209963Y251536D01*
X210713Y252449D01*
X211270Y253492D01*
X211613Y254623D01*
X211631Y254799D01*
D02*
G37*
G36*
X204700D02*
X199769D01*
X199787Y254623D01*
X200130Y253492D01*
X200687Y252449D01*
X201437Y251536D01*
X202350Y250786D01*
X203393Y250229D01*
X204524Y249886D01*
X204700Y249868D01*
Y254799D01*
D02*
G37*
G36*
X233000Y250640D02*
X231799Y250482D01*
X230680Y250018D01*
X229719Y249281D01*
X228982Y248320D01*
X228518Y247201D01*
X228360Y246000D01*
X228518Y244799D01*
X228982Y243680D01*
X229719Y242719D01*
X230680Y241982D01*
X231799Y241518D01*
X233000Y241360D01*
X234201Y241518D01*
X235320Y241982D01*
X236281Y242719D01*
X237018Y243680D01*
X237482Y244799D01*
X237640Y246000D01*
X237482Y247201D01*
X237018Y248320D01*
X236281Y249281D01*
X235320Y250018D01*
X234201Y250482D01*
X233000Y250640D01*
D02*
G37*
G36*
X323700Y248048D02*
X322524Y247933D01*
X321393Y247590D01*
X320351Y247032D01*
X319437Y246283D01*
X318687Y245369D01*
X318130Y244327D01*
X317787Y243196D01*
X317671Y242020D01*
X317787Y240843D01*
X318130Y239712D01*
X318687Y238670D01*
X319437Y237756D01*
X320351Y237006D01*
X321393Y236449D01*
X322524Y236106D01*
X323700Y235991D01*
X324876Y236106D01*
X326007Y236449D01*
X327049Y237006D01*
X327963Y237756D01*
X328713Y238670D01*
X329270Y239712D01*
X329613Y240843D01*
X329729Y242020D01*
X329613Y243196D01*
X329270Y244327D01*
X328713Y245369D01*
X327963Y246283D01*
X327049Y247032D01*
X326007Y247590D01*
X324876Y247933D01*
X323700Y248048D01*
D02*
G37*
G36*
X205700D02*
X204524Y247933D01*
X203393Y247590D01*
X202350Y247032D01*
X201437Y246283D01*
X200687Y245369D01*
X200130Y244327D01*
X199787Y243196D01*
X199671Y242020D01*
X199787Y240843D01*
X200130Y239712D01*
X200687Y238670D01*
X201437Y237756D01*
X202350Y237006D01*
X203393Y236449D01*
X204524Y236106D01*
X205700Y235991D01*
X206876Y236106D01*
X208007Y236449D01*
X209050Y237006D01*
X209963Y237756D01*
X210713Y238670D01*
X211270Y239712D01*
X211613Y240843D01*
X211729Y242020D01*
X211613Y243196D01*
X211270Y244327D01*
X210713Y245369D01*
X209963Y246283D01*
X209050Y247032D01*
X208007Y247590D01*
X206876Y247933D01*
X205700Y248048D01*
D02*
G37*
G36*
X233000Y240640D02*
X231799Y240482D01*
X230680Y240018D01*
X229719Y239281D01*
X228982Y238320D01*
X228518Y237201D01*
X228360Y236000D01*
X228518Y234799D01*
X228982Y233680D01*
X229719Y232719D01*
X230680Y231982D01*
X231799Y231518D01*
X233000Y231360D01*
X234201Y231518D01*
X235320Y231982D01*
X236281Y232719D01*
X237018Y233680D01*
X237482Y234799D01*
X237640Y236000D01*
X237482Y237201D01*
X237018Y238320D01*
X236281Y239281D01*
X235320Y240018D01*
X234201Y240482D01*
X233000Y240640D01*
D02*
G37*
G36*
X323700Y234508D02*
X322524Y234393D01*
X321393Y234050D01*
X320351Y233492D01*
X319437Y232743D01*
X318687Y231829D01*
X318130Y230787D01*
X317787Y229656D01*
X317671Y228480D01*
X317787Y227303D01*
X318130Y226172D01*
X318687Y225130D01*
X319437Y224216D01*
X320351Y223466D01*
X321393Y222909D01*
X322524Y222566D01*
X323700Y222450D01*
X324876Y222566D01*
X326007Y222909D01*
X327049Y223466D01*
X327963Y224216D01*
X328713Y225130D01*
X329270Y226172D01*
X329613Y227303D01*
X329729Y228480D01*
X329613Y229656D01*
X329270Y230787D01*
X328713Y231829D01*
X327963Y232743D01*
X327049Y233492D01*
X326007Y234050D01*
X324876Y234393D01*
X323700Y234508D01*
D02*
G37*
G36*
X205700D02*
X204524Y234393D01*
X203393Y234050D01*
X202350Y233492D01*
X201437Y232743D01*
X200687Y231829D01*
X200130Y230787D01*
X199787Y229656D01*
X199671Y228480D01*
X199787Y227303D01*
X200130Y226172D01*
X200687Y225130D01*
X201437Y224216D01*
X202350Y223466D01*
X203393Y222909D01*
X204524Y222566D01*
X205700Y222450D01*
X206876Y222566D01*
X208007Y222909D01*
X209050Y223466D01*
X209963Y224216D01*
X210713Y225130D01*
X211270Y226172D01*
X211613Y227303D01*
X211729Y228480D01*
X211613Y229656D01*
X211270Y230787D01*
X210713Y231829D01*
X209963Y232743D01*
X209050Y233492D01*
X208007Y234050D01*
X206876Y234393D01*
X205700Y234508D01*
D02*
G37*
G36*
X247600Y230600D02*
X238400D01*
Y221400D01*
X247600D01*
Y230600D01*
D02*
G37*
G36*
X233000Y230640D02*
X231799Y230482D01*
X230680Y230018D01*
X229719Y229281D01*
X228982Y228320D01*
X228518Y227201D01*
X228360Y226000D01*
X228518Y224799D01*
X228982Y223680D01*
X229719Y222719D01*
X230680Y221982D01*
X231799Y221518D01*
X233000Y221360D01*
X234201Y221518D01*
X235320Y221982D01*
X236281Y222719D01*
X237018Y223680D01*
X237482Y224799D01*
X237640Y226000D01*
X237482Y227201D01*
X237018Y228320D01*
X236281Y229281D01*
X235320Y230018D01*
X234201Y230482D01*
X233000Y230640D01*
D02*
G37*
G36*
X356701Y222315D02*
X353647D01*
X353658Y222232D01*
X354076Y221222D01*
X354741Y220355D01*
X355608Y219690D01*
X356617Y219272D01*
X356701Y219261D01*
Y222315D01*
D02*
G37*
G36*
X243000Y220640D02*
X241799Y220482D01*
X240680Y220018D01*
X239719Y219281D01*
X238982Y218320D01*
X238518Y217201D01*
X238360Y216000D01*
X238518Y214799D01*
X238982Y213680D01*
X239719Y212719D01*
X240680Y211982D01*
X241799Y211518D01*
X243000Y211360D01*
X244201Y211518D01*
X245320Y211982D01*
X246281Y212719D01*
X247018Y213680D01*
X247482Y214799D01*
X247640Y216000D01*
X247482Y217201D01*
X247018Y218320D01*
X246281Y219281D01*
X245320Y220018D01*
X244201Y220482D01*
X243000Y220640D01*
D02*
G37*
G36*
X233000D02*
X231799Y220482D01*
X230680Y220018D01*
X229719Y219281D01*
X228982Y218320D01*
X228518Y217201D01*
X228360Y216000D01*
X228518Y214799D01*
X228982Y213680D01*
X229719Y212719D01*
X230680Y211982D01*
X231799Y211518D01*
X233000Y211360D01*
X234201Y211518D01*
X235320Y211982D01*
X236281Y212719D01*
X237018Y213680D01*
X237482Y214799D01*
X237640Y216000D01*
X237482Y217201D01*
X237018Y218320D01*
X236281Y219281D01*
X235320Y220018D01*
X234201Y220482D01*
X233000Y220640D01*
D02*
G37*
G36*
X357701Y217658D02*
X356617Y217515D01*
X355608Y217097D01*
X354741Y216432D01*
X354076Y215565D01*
X353658Y214556D01*
X353515Y213472D01*
X353658Y212389D01*
X354076Y211380D01*
X354741Y210513D01*
X355608Y209848D01*
X356617Y209430D01*
X357701Y209287D01*
X358784Y209430D01*
X359793Y209848D01*
X360660Y210513D01*
X361326Y211380D01*
X361744Y212389D01*
X361886Y213472D01*
X361744Y214556D01*
X361326Y215565D01*
X360660Y216432D01*
X359793Y217097D01*
X358784Y217515D01*
X357701Y217658D01*
D02*
G37*
G36*
X323700Y220729D02*
X322524Y220613D01*
X321393Y220270D01*
X320351Y219713D01*
X319437Y218963D01*
X318687Y218050D01*
X318130Y217007D01*
X317787Y215876D01*
X317671Y214700D01*
X317787Y213524D01*
X318130Y212393D01*
X318687Y211350D01*
X319437Y210437D01*
X320351Y209687D01*
X321393Y209130D01*
X322524Y208787D01*
X323700Y208671D01*
X324876Y208787D01*
X326007Y209130D01*
X327049Y209687D01*
X327963Y210437D01*
X328713Y211350D01*
X329270Y212393D01*
X329613Y213524D01*
X329729Y214700D01*
X329613Y215876D01*
X329270Y217007D01*
X328713Y218050D01*
X327963Y218963D01*
X327049Y219713D01*
X326007Y220270D01*
X324876Y220613D01*
X323700Y220729D01*
D02*
G37*
G36*
X205700D02*
X204524Y220613D01*
X203393Y220270D01*
X202350Y219713D01*
X201437Y218963D01*
X200687Y218050D01*
X200130Y217007D01*
X199787Y215876D01*
X199671Y214700D01*
X199787Y213524D01*
X200130Y212393D01*
X200687Y211350D01*
X201437Y210437D01*
X202350Y209687D01*
X203393Y209130D01*
X204524Y208787D01*
X205700Y208671D01*
X206876Y208787D01*
X208007Y209130D01*
X209050Y209687D01*
X209963Y210437D01*
X210713Y211350D01*
X211270Y212393D01*
X211613Y213524D01*
X211729Y214700D01*
X211613Y215876D01*
X211270Y217007D01*
X210713Y218050D01*
X209963Y218963D01*
X209050Y219713D01*
X208007Y220270D01*
X206876Y220613D01*
X205700Y220729D01*
D02*
G37*
G36*
X233000Y210640D02*
X231799Y210482D01*
X230680Y210018D01*
X229719Y209281D01*
X228982Y208320D01*
X228518Y207201D01*
X228360Y206000D01*
X228518Y204799D01*
X228982Y203680D01*
X229719Y202719D01*
X230680Y201982D01*
X231799Y201518D01*
X233000Y201360D01*
X234201Y201518D01*
X235320Y201982D01*
X236281Y202719D01*
X237018Y203680D01*
X237482Y204799D01*
X237640Y206000D01*
X237482Y207201D01*
X237018Y208320D01*
X236281Y209281D01*
X235320Y210018D01*
X234201Y210482D01*
X233000Y210640D01*
D02*
G37*
G36*
Y200640D02*
X231799Y200482D01*
X230680Y200018D01*
X229719Y199281D01*
X228982Y198320D01*
X228518Y197201D01*
X228360Y196000D01*
X228518Y194799D01*
X228982Y193680D01*
X229719Y192719D01*
X230680Y191982D01*
X231799Y191518D01*
X233000Y191360D01*
X234201Y191518D01*
X235320Y191982D01*
X236281Y192719D01*
X237018Y193680D01*
X237482Y194799D01*
X237640Y196000D01*
X237482Y197201D01*
X237018Y198320D01*
X236281Y199281D01*
X235320Y200018D01*
X234201Y200482D01*
X233000Y200640D01*
D02*
G37*
G36*
X237600Y180600D02*
X228400D01*
Y171400D01*
X237600D01*
Y180600D01*
D02*
G37*
G36*
X234000Y170508D02*
Y167000D01*
X237508D01*
X237482Y167201D01*
X237018Y168320D01*
X236281Y169281D01*
X235320Y170018D01*
X234201Y170482D01*
X234000Y170508D01*
D02*
G37*
G36*
X232000D02*
X231799Y170482D01*
X230680Y170018D01*
X229719Y169281D01*
X228982Y168320D01*
X228518Y167201D01*
X228492Y167000D01*
X232000D01*
Y170508D01*
D02*
G37*
G36*
X116000D02*
Y167000D01*
X119508D01*
X119482Y167201D01*
X119018Y168320D01*
X118281Y169281D01*
X117320Y170018D01*
X116201Y170482D01*
X116000Y170508D01*
D02*
G37*
G36*
X328000Y177531D02*
X326726Y177406D01*
X325500Y177034D01*
X324371Y176431D01*
X323382Y175618D01*
X322569Y174629D01*
X321966Y173500D01*
X321594Y172274D01*
X321469Y171000D01*
X321594Y169726D01*
X321966Y168500D01*
X322569Y167371D01*
X323382Y166382D01*
X324371Y165569D01*
X325500Y164966D01*
X326726Y164594D01*
X328000Y164469D01*
X329274Y164594D01*
X330500Y164966D01*
X331629Y165569D01*
X332618Y166382D01*
X333431Y167371D01*
X334034Y168500D01*
X334406Y169726D01*
X334531Y171000D01*
X334406Y172274D01*
X334034Y173500D01*
X333431Y174629D01*
X332618Y175618D01*
X331629Y176431D01*
X330500Y177034D01*
X329274Y177406D01*
X328000Y177531D01*
D02*
G37*
G36*
X210000D02*
X208726Y177406D01*
X207501Y177034D01*
X206371Y176431D01*
X205382Y175618D01*
X204569Y174629D01*
X203966Y173500D01*
X203594Y172274D01*
X203469Y171000D01*
X203594Y169726D01*
X203966Y168500D01*
X204569Y167371D01*
X205382Y166382D01*
X206371Y165569D01*
X207501Y164966D01*
X208726Y164594D01*
X210000Y164469D01*
X211274Y164594D01*
X212499Y164966D01*
X213629Y165569D01*
X214618Y166382D01*
X215431Y167371D01*
X216034Y168500D01*
X216406Y169726D01*
X216531Y171000D01*
X216406Y172274D01*
X216034Y173500D01*
X215431Y174629D01*
X214618Y175618D01*
X213629Y176431D01*
X212499Y177034D01*
X211274Y177406D01*
X210000Y177531D01*
D02*
G37*
G36*
X237508Y165000D02*
X234000D01*
Y161492D01*
X234201Y161518D01*
X235320Y161982D01*
X236281Y162719D01*
X237018Y163680D01*
X237482Y164799D01*
X237508Y165000D01*
D02*
G37*
G36*
X232000D02*
X228492D01*
X228518Y164799D01*
X228982Y163680D01*
X229719Y162719D01*
X230680Y161982D01*
X231799Y161518D01*
X232000Y161492D01*
Y165000D01*
D02*
G37*
G36*
X119508D02*
X116000D01*
Y161492D01*
X116201Y161518D01*
X117320Y161982D01*
X118281Y162719D01*
X119018Y163680D01*
X119482Y164799D01*
X119508Y165000D01*
D02*
G37*
%LPD*%
D11*
X267500Y381500D02*
X268000Y381000D01*
X307500Y347100D02*
Y381500D01*
X317500Y345000D02*
Y381500D01*
X265500Y378500D02*
X267500Y376500D01*
Y355500D02*
Y376500D01*
X272800Y348700D02*
Y349300D01*
X277500Y354000D01*
Y381500D01*
X278100Y341900D02*
X287500Y351300D01*
Y380000D01*
X283400Y335100D02*
X297500Y349200D01*
Y381500D01*
X288700Y328300D02*
X307500Y347100D01*
X294000Y321500D02*
X317500Y345000D01*
X337500Y351000D02*
Y381500D01*
X327500Y347500D02*
Y381500D01*
X293000Y268000D02*
Y313000D01*
X327500Y347500D01*
X301000Y267500D02*
Y314500D01*
X337500Y351000D01*
X265500Y378500D02*
X268000Y381000D01*
X287500Y380000D02*
X289000Y381500D01*
X85000Y476500D02*
X380000D01*
Y101500D02*
Y476500D01*
X85000Y101500D02*
X380000D01*
X85000D02*
Y476500D01*
D31*
X233000Y306000D02*
X243000D01*
X247500D01*
X233000Y266000D02*
X243000D01*
X248000D01*
X247500Y306000D02*
X251500Y310000D01*
X248000Y266000D02*
X251500Y269500D01*
Y310000D02*
X257500Y316000D01*
X251500Y269500D02*
Y310000D01*
X115000Y306000D02*
X125000D01*
X115000Y266000D02*
X125000D01*
X115000Y256000D02*
X125000D01*
X111000Y266000D02*
X115000D01*
X111000Y256000D02*
X115000D01*
X106000Y261000D02*
X111000Y256000D01*
X106000Y219000D02*
X109000Y216000D01*
X115000D01*
X125000D01*
X106000Y219000D02*
Y261000D01*
Y269000D01*
Y271000D02*
X111000Y266000D01*
X106000Y190000D02*
Y219000D01*
Y190000D02*
X110000Y186000D01*
X115000D01*
X106000Y150500D02*
Y190000D01*
Y150500D02*
X111500Y145000D01*
X133500D01*
X137689Y140811D01*
Y133000D02*
Y140811D01*
X233000Y186000D02*
X241500D01*
X246689Y180811D01*
Y133000D02*
Y180811D01*
X111000Y306000D02*
X115000D01*
X106000Y311000D02*
X111000Y306000D01*
X106000Y271000D02*
Y311000D01*
X187500Y122500D02*
X192189Y127189D01*
X137689Y127811D02*
Y133000D01*
Y127811D02*
X143000Y122500D01*
X187500D01*
X246689Y126811D02*
X250000Y123500D01*
X298000D01*
X301189Y126689D01*
Y133000D01*
X246689Y126811D02*
Y133000D01*
X192189Y127189D02*
Y133000D01*
X257500Y373000D02*
Y381500D01*
Y316000D02*
Y373000D01*
X106000Y311000D02*
Y345500D01*
X115500Y355000D01*
X239500D01*
X257500Y373000D01*
X117500Y427000D02*
Y441500D01*
Y427000D02*
X131500Y413000D01*
X349500D01*
X367000Y395500D01*
Y325500D02*
Y395500D01*
X355000Y245500D02*
Y274000D01*
Y245500D02*
X357701Y242799D01*
Y233157D02*
Y242799D01*
D32*
X367000Y276000D02*
Y305500D01*
X365000Y274000D02*
X367000Y276000D01*
X365000Y248500D02*
Y274000D01*
Y248500D02*
X368500Y245000D01*
Y228500D02*
Y245000D01*
X363315Y223315D02*
X368500Y228500D01*
X357701Y223315D02*
X363315D01*
D33*
X283472Y133000D02*
D03*
X289378D02*
D03*
X295284D02*
D03*
X307095D02*
D03*
X301189D02*
D03*
X228972D02*
D03*
X234878D02*
D03*
X240784D02*
D03*
X252594D02*
D03*
X246689D02*
D03*
X174472D02*
D03*
X180378D02*
D03*
X186284D02*
D03*
X198094D02*
D03*
X192189D02*
D03*
X119973D02*
D03*
X125878D02*
D03*
X131783D02*
D03*
X143595D02*
D03*
X137689D02*
D03*
D34*
X313000D02*
D03*
X258500D02*
D03*
X204000D02*
D03*
X149500D02*
D03*
D35*
X365000Y116500D02*
D03*
X100000D02*
D03*
Y460000D02*
D03*
X365000D02*
D03*
D36*
Y274000D02*
D03*
D37*
X355000D02*
D03*
D38*
X367000Y325500D02*
D03*
Y315500D02*
D03*
D39*
Y305500D02*
D03*
D40*
X323700Y242020D02*
D03*
Y228480D02*
D03*
Y214700D02*
D03*
Y255799D02*
D03*
Y269339D02*
D03*
Y283119D02*
D03*
X205700Y242020D02*
D03*
Y228480D02*
D03*
Y214700D02*
D03*
Y255799D02*
D03*
Y269339D02*
D03*
Y283119D02*
D03*
D41*
X233000Y166000D02*
D03*
Y186000D02*
D03*
Y196000D02*
D03*
Y206000D02*
D03*
Y216000D02*
D03*
Y226000D02*
D03*
Y236000D02*
D03*
Y246000D02*
D03*
Y256000D02*
D03*
Y266000D02*
D03*
Y276000D02*
D03*
Y286000D02*
D03*
Y296000D02*
D03*
Y306000D02*
D03*
Y316000D02*
D03*
Y326000D02*
D03*
Y336000D02*
D03*
X243000Y216000D02*
D03*
Y256000D02*
D03*
Y266000D02*
D03*
Y276000D02*
D03*
Y306000D02*
D03*
X115000Y166000D02*
D03*
Y186000D02*
D03*
Y196000D02*
D03*
Y206000D02*
D03*
Y216000D02*
D03*
Y226000D02*
D03*
Y236000D02*
D03*
Y246000D02*
D03*
Y256000D02*
D03*
Y266000D02*
D03*
Y276000D02*
D03*
Y286000D02*
D03*
Y296000D02*
D03*
Y306000D02*
D03*
Y316000D02*
D03*
Y326000D02*
D03*
Y336000D02*
D03*
X125000Y216000D02*
D03*
Y256000D02*
D03*
Y266000D02*
D03*
Y276000D02*
D03*
Y306000D02*
D03*
D42*
X233000Y176000D02*
D03*
X243000Y226000D02*
D03*
Y316000D02*
D03*
X115000Y176000D02*
D03*
X125000Y226000D02*
D03*
Y316000D02*
D03*
D43*
X328000Y171000D02*
D03*
Y331000D02*
D03*
X210000Y171000D02*
D03*
Y331000D02*
D03*
D44*
X357701Y223315D02*
D03*
Y213472D02*
D03*
D45*
Y233157D02*
D03*
D46*
X347500Y441500D02*
D03*
X337500D02*
D03*
X327500D02*
D03*
X317500D02*
D03*
X307500D02*
D03*
X297500D02*
D03*
X287500D02*
D03*
X277500D02*
D03*
X267500D02*
D03*
X257500D02*
D03*
X247500D02*
D03*
X237500D02*
D03*
X227500D02*
D03*
X217500D02*
D03*
X207500D02*
D03*
X197500D02*
D03*
X187500D02*
D03*
X177500D02*
D03*
X167500D02*
D03*
X157500D02*
D03*
X147500D02*
D03*
X137500D02*
D03*
X127500D02*
D03*
X117500D02*
D03*
X347500Y381500D02*
D03*
X337500D02*
D03*
X327500D02*
D03*
X317500D02*
D03*
X307500D02*
D03*
X297500D02*
D03*
X287500D02*
D03*
X277500D02*
D03*
X267500D02*
D03*
X257500D02*
D03*
X247500D02*
D03*
X237500D02*
D03*
X227500D02*
D03*
X217500D02*
D03*
X207500D02*
D03*
X197500D02*
D03*
X187500D02*
D03*
X177500D02*
D03*
X167500D02*
D03*
X157500D02*
D03*
X147500D02*
D03*
X137500D02*
D03*
X127500D02*
D03*
D47*
X117500D02*
D03*
D48*
X272800Y348700D02*
D03*
X278100Y341900D02*
D03*
X267500Y355500D02*
D03*
X283400Y335100D02*
D03*
X288700Y328300D02*
D03*
X294000Y321500D02*
D03*
X293000Y268000D02*
D03*
X301000Y267500D02*
D03*
X312500Y312500D02*
D03*
X309682Y401000D02*
D03*
X329091D02*
D03*
X241750Y425500D02*
D03*
X261159D02*
D03*
X280568D02*
D03*
X299977D02*
D03*
X290273Y401000D02*
D03*
X270864D02*
D03*
X251454D02*
D03*
X232045D02*
D03*
X319386Y425500D02*
D03*
X338795D02*
D03*
X144704D02*
D03*
X164114D02*
D03*
X202932D02*
D03*
X183523D02*
D03*
X173818Y401000D02*
D03*
X193227D02*
D03*
X154409D02*
D03*
X183167Y308000D02*
D03*
X196000Y294500D02*
D03*
X170333D02*
D03*
X157500Y265000D02*
D03*
Y281000D02*
D03*
X170333D02*
D03*
X183167Y294500D02*
D03*
X175000Y230429D02*
D03*
X185000Y239000D02*
D03*
X175000Y213286D02*
D03*
Y196143D02*
D03*
X185000Y221857D02*
D03*
Y204714D02*
D03*
Y187571D02*
D03*
X175000Y179000D02*
D03*
X222341Y425500D02*
D03*
X212636Y401000D02*
D03*
X98500Y417200D02*
D03*
Y401900D02*
D03*
Y386600D02*
D03*
Y371300D02*
D03*
Y356000D02*
D03*
X146000Y196500D02*
D03*
X134500Y188500D02*
D03*
X146000Y180500D02*
D03*
X134500Y172500D02*
D03*
X135000Y401000D02*
D03*
X98500Y432500D02*
D03*
X312500Y299000D02*
D03*
X330000Y312500D02*
D03*
Y299000D02*
D03*
M02*
