G04*
G04 #@! TF.GenerationSoftware,Altium Limited,DefaultClient, ()*
G04*
G04 Layer_Color=8388736*
%FSLAX25Y25*%
%MOIN*%
G70*
G04*
G04 #@! TF.SameCoordinates,BEE212FD-1A4C-4D2E-9424-7381D7AD546F*
G04*
G04*
G04 #@! TF.FilePolarity,Negative*
G04*
G01*
G75*
%ADD11C,0.01000*%
%ADD15O,0.04931X0.05324*%
G04:AMPARAMS|DCode=16|XSize=49.31mil|YSize=53.24mil|CornerRadius=0mil|HoleSize=0mil|Usage=FLASHONLY|Rotation=180.000|XOffset=0mil|YOffset=0mil|HoleType=Round|Shape=Octagon|*
%AMOCTAGOND16*
4,1,8,0.01233,-0.02662,-0.01233,-0.02662,-0.02465,-0.01430,-0.02465,0.01430,-0.01233,0.02662,0.01233,0.02662,0.02465,0.01430,0.02465,-0.01430,0.01233,-0.02662,0.0*
%
%ADD16OCTAGOND16*%

%ADD17C,0.18600*%
%ADD18R,0.06600X0.06600*%
%ADD19C,0.06600*%
%ADD20C,0.06506*%
%ADD21R,0.06506X0.06506*%
%ADD22C,0.10600*%
%ADD23C,0.07800*%
%ADD24R,0.07800X0.07800*%
%ADD25C,0.11600*%
%ADD26C,0.06899*%
%ADD27R,0.06899X0.06899*%
%ADD28O,0.05600X0.10600*%
%ADD29R,0.05600X0.10600*%
%ADD30C,0.06200*%
D11*
X85000Y476500D02*
X380000D01*
Y101500D02*
Y476500D01*
X85000Y101500D02*
X380000D01*
X85000D02*
Y476500D01*
D15*
X283472Y133000D02*
D03*
X289378D02*
D03*
X295284D02*
D03*
X307095D02*
D03*
X301189D02*
D03*
X228972D02*
D03*
X234878D02*
D03*
X240784D02*
D03*
X252594D02*
D03*
X246689D02*
D03*
X174472D02*
D03*
X180378D02*
D03*
X186284D02*
D03*
X198094D02*
D03*
X192189D02*
D03*
X119973D02*
D03*
X125878D02*
D03*
X131783D02*
D03*
X143595D02*
D03*
X137689D02*
D03*
D16*
X313000D02*
D03*
X258500D02*
D03*
X204000D02*
D03*
X149500D02*
D03*
D17*
X365000Y116500D02*
D03*
X100000D02*
D03*
Y460000D02*
D03*
X365000D02*
D03*
D18*
Y274000D02*
D03*
D19*
X355000D02*
D03*
D20*
X367000Y325500D02*
D03*
Y315500D02*
D03*
D21*
Y305500D02*
D03*
D22*
X323700Y242020D02*
D03*
Y228480D02*
D03*
Y214700D02*
D03*
Y255799D02*
D03*
Y269339D02*
D03*
Y283119D02*
D03*
X205700Y242020D02*
D03*
Y228480D02*
D03*
Y214700D02*
D03*
Y255799D02*
D03*
Y269339D02*
D03*
Y283119D02*
D03*
D23*
X233000Y166000D02*
D03*
Y186000D02*
D03*
Y196000D02*
D03*
Y206000D02*
D03*
Y216000D02*
D03*
Y226000D02*
D03*
Y236000D02*
D03*
Y246000D02*
D03*
Y256000D02*
D03*
Y266000D02*
D03*
Y276000D02*
D03*
Y286000D02*
D03*
Y296000D02*
D03*
Y306000D02*
D03*
Y316000D02*
D03*
Y326000D02*
D03*
Y336000D02*
D03*
X243000Y216000D02*
D03*
Y256000D02*
D03*
Y266000D02*
D03*
Y276000D02*
D03*
Y306000D02*
D03*
X115000Y166000D02*
D03*
Y186000D02*
D03*
Y196000D02*
D03*
Y206000D02*
D03*
Y216000D02*
D03*
Y226000D02*
D03*
Y236000D02*
D03*
Y246000D02*
D03*
Y256000D02*
D03*
Y266000D02*
D03*
Y276000D02*
D03*
Y286000D02*
D03*
Y296000D02*
D03*
Y306000D02*
D03*
Y316000D02*
D03*
Y326000D02*
D03*
Y336000D02*
D03*
X125000Y216000D02*
D03*
Y256000D02*
D03*
Y266000D02*
D03*
Y276000D02*
D03*
Y306000D02*
D03*
D24*
X233000Y176000D02*
D03*
X243000Y226000D02*
D03*
Y316000D02*
D03*
X115000Y176000D02*
D03*
X125000Y226000D02*
D03*
Y316000D02*
D03*
D25*
X328000Y171000D02*
D03*
Y331000D02*
D03*
X210000Y171000D02*
D03*
Y331000D02*
D03*
D26*
X357701Y223315D02*
D03*
Y213472D02*
D03*
D27*
Y233157D02*
D03*
D28*
X347500Y441500D02*
D03*
X337500D02*
D03*
X327500D02*
D03*
X317500D02*
D03*
X307500D02*
D03*
X297500D02*
D03*
X287500D02*
D03*
X277500D02*
D03*
X267500D02*
D03*
X257500D02*
D03*
X247500D02*
D03*
X237500D02*
D03*
X227500D02*
D03*
X217500D02*
D03*
X207500D02*
D03*
X197500D02*
D03*
X187500D02*
D03*
X177500D02*
D03*
X167500D02*
D03*
X157500D02*
D03*
X147500D02*
D03*
X137500D02*
D03*
X127500D02*
D03*
X117500D02*
D03*
X347500Y381500D02*
D03*
X337500D02*
D03*
X327500D02*
D03*
X317500D02*
D03*
X307500D02*
D03*
X297500D02*
D03*
X287500D02*
D03*
X277500D02*
D03*
X267500D02*
D03*
X257500D02*
D03*
X247500D02*
D03*
X237500D02*
D03*
X227500D02*
D03*
X217500D02*
D03*
X207500D02*
D03*
X197500D02*
D03*
X187500D02*
D03*
X177500D02*
D03*
X167500D02*
D03*
X157500D02*
D03*
X147500D02*
D03*
X137500D02*
D03*
X127500D02*
D03*
D29*
X117500D02*
D03*
D30*
X272800Y348700D02*
D03*
X278100Y341900D02*
D03*
X267500Y355500D02*
D03*
X283400Y335100D02*
D03*
X288700Y328300D02*
D03*
X294000Y321500D02*
D03*
X293000Y268000D02*
D03*
X301000Y267500D02*
D03*
X312500Y312500D02*
D03*
X309682Y401000D02*
D03*
X329091D02*
D03*
X241750Y425500D02*
D03*
X261159D02*
D03*
X280568D02*
D03*
X299977D02*
D03*
X290273Y401000D02*
D03*
X270864D02*
D03*
X251454D02*
D03*
X232045D02*
D03*
X319386Y425500D02*
D03*
X338795D02*
D03*
X144704D02*
D03*
X164114D02*
D03*
X202932D02*
D03*
X183523D02*
D03*
X173818Y401000D02*
D03*
X193227D02*
D03*
X154409D02*
D03*
X183167Y308000D02*
D03*
X196000Y294500D02*
D03*
X170333D02*
D03*
X157500Y265000D02*
D03*
Y281000D02*
D03*
X170333D02*
D03*
X183167Y294500D02*
D03*
X175000Y230429D02*
D03*
X185000Y239000D02*
D03*
X175000Y213286D02*
D03*
Y196143D02*
D03*
X185000Y221857D02*
D03*
Y204714D02*
D03*
Y187571D02*
D03*
X175000Y179000D02*
D03*
X222341Y425500D02*
D03*
X212636Y401000D02*
D03*
X98500Y417200D02*
D03*
Y401900D02*
D03*
Y386600D02*
D03*
Y371300D02*
D03*
Y356000D02*
D03*
X146000Y196500D02*
D03*
X134500Y188500D02*
D03*
X146000Y180500D02*
D03*
X134500Y172500D02*
D03*
X135000Y401000D02*
D03*
X98500Y432500D02*
D03*
X312500Y299000D02*
D03*
X330000Y312500D02*
D03*
Y299000D02*
D03*
M02*
