G04*
G04 #@! TF.GenerationSoftware,Altium Limited,DefaultClient, ()*
G04*
G04 Layer_Color=65535*
%FSLAX25Y25*%
%MOIN*%
G70*
G04*
G04 #@! TF.SameCoordinates,BEE212FD-1A4C-4D2E-9424-7381D7AD546F*
G04*
G04*
G04 #@! TF.FilePolarity,Positive*
G04*
G01*
G75*
%ADD10C,0.00984*%
%ADD11C,0.01000*%
%ADD12C,0.00394*%
%ADD13C,0.00787*%
%ADD14C,0.00800*%
G36*
X151469Y141661D02*
X149500Y139693D01*
X147531Y141661D01*
X151469D01*
D02*
G37*
G36*
X205968D02*
X204000Y139693D01*
X202031Y141661D01*
X205968D01*
D02*
G37*
G36*
X260469D02*
X258500Y139693D01*
X256532Y141661D01*
X260469D01*
D02*
G37*
G36*
X314968D02*
X313000Y139693D01*
X311032Y141661D01*
X314968D01*
D02*
G37*
D10*
X378319Y296799D02*
G03*
X378319Y296799I-492J0D01*
G01*
D11*
X113000Y409000D02*
G03*
X113000Y414000I0J2500D01*
G01*
X348000Y203630D02*
Y243000D01*
X348130Y203630D02*
X364000D01*
Y243000D01*
X348000D02*
X364000D01*
X112500Y390000D02*
X352500D01*
Y433000D01*
X112500D02*
X352500D01*
X112500Y414000D02*
Y433000D01*
Y390000D02*
Y409000D01*
X130500Y459500D02*
Y463499D01*
X132499D01*
X133166Y462832D01*
Y461499D01*
X132499Y460833D01*
X130500D01*
X131833D02*
X133166Y459500D01*
X135165D02*
X136498D01*
X137164Y460166D01*
Y461499D01*
X136498Y462166D01*
X135165D01*
X134499Y461499D01*
Y460166D01*
X135165Y459500D01*
X138497D02*
X139830D01*
X139164D01*
Y463499D01*
X138497D01*
X141830Y459500D02*
X143163D01*
X142496D01*
Y463499D01*
X141830D01*
X147161Y459500D02*
X145828D01*
X145162Y460166D01*
Y461499D01*
X145828Y462166D01*
X147161D01*
X147828Y461499D01*
Y460833D01*
X145162D01*
X149161Y462166D02*
Y459500D01*
Y460833D01*
X149827Y461499D01*
X150494Y462166D01*
X151160D01*
X159824Y462832D02*
X159157Y463499D01*
X157825D01*
X157158Y462832D01*
Y460166D01*
X157825Y459500D01*
X159157D01*
X159824Y460166D01*
Y461499D01*
X158491D01*
X161157Y462166D02*
Y459500D01*
Y460833D01*
X161823Y461499D01*
X162490Y462166D01*
X163156D01*
X165822D02*
X167155D01*
X167821Y461499D01*
Y459500D01*
X165822D01*
X165155Y460166D01*
X165822Y460833D01*
X167821D01*
X169154Y459500D02*
X171153D01*
X171820Y460166D01*
X171153Y460833D01*
X169821D01*
X169154Y461499D01*
X169821Y462166D01*
X171820D01*
X173153Y458167D02*
Y462166D01*
X175152D01*
X175819Y461499D01*
Y460166D01*
X175152Y459500D01*
X173153D01*
X179151D02*
X177818D01*
X177152Y460166D01*
Y461499D01*
X177818Y462166D01*
X179151D01*
X179817Y461499D01*
Y460833D01*
X177152D01*
X181150Y462166D02*
Y459500D01*
Y460833D01*
X181817Y461499D01*
X182483Y462166D01*
X183150D01*
X191814Y462832D02*
X191147Y463499D01*
X189814D01*
X189148Y462832D01*
Y460166D01*
X189814Y459500D01*
X191147D01*
X191814Y460166D01*
Y461499D01*
X190481D01*
X195146Y459500D02*
X193813D01*
X193147Y460166D01*
Y461499D01*
X193813Y462166D01*
X195146D01*
X195812Y461499D01*
Y460833D01*
X193147D01*
X197145Y459500D02*
X198478D01*
X197812D01*
Y463499D01*
X197145D01*
X203143Y462832D02*
X202477Y463499D01*
X201144D01*
X200477Y462832D01*
Y462166D01*
X201144Y461499D01*
X202477D01*
X203143Y460833D01*
Y460166D01*
X202477Y459500D01*
X201144D01*
X200477Y460166D01*
X204476Y459500D02*
X205809D01*
X205143D01*
Y462166D01*
X204476D01*
X209141Y458167D02*
X209808D01*
X210474Y458834D01*
Y462166D01*
X208475D01*
X207808Y461499D01*
Y460166D01*
X208475Y459500D01*
X210474D01*
X211807Y463499D02*
Y459500D01*
Y461499D01*
X212474Y462166D01*
X213807D01*
X214473Y461499D01*
Y459500D01*
X216472Y462832D02*
Y462166D01*
X215806D01*
X217139D01*
X216472D01*
Y460166D01*
X217139Y459500D01*
X219138Y462166D02*
X219805D01*
Y461499D01*
X219138D01*
Y462166D01*
Y460166D02*
X219805D01*
Y459500D01*
X219138D01*
Y460166D01*
X226469Y463499D02*
Y459500D01*
X228468D01*
X229135Y460166D01*
Y460833D01*
Y461499D01*
X228468Y462166D01*
X226469D01*
X230468D02*
Y460166D01*
X231134Y459500D01*
X233134D01*
Y458834D01*
X232467Y458167D01*
X231801D01*
X233134Y459500D02*
Y462166D01*
X241131Y462832D02*
X240464Y463499D01*
X239132D01*
X238465Y462832D01*
Y462166D01*
X239132Y461499D01*
X240464D01*
X241131Y460833D01*
Y460166D01*
X240464Y459500D01*
X239132D01*
X238465Y460166D01*
X242464Y463499D02*
Y459500D01*
Y461499D01*
X243130Y462166D01*
X244463D01*
X245130Y461499D01*
Y459500D01*
X248462D02*
X247129D01*
X246463Y460166D01*
Y461499D01*
X247129Y462166D01*
X248462D01*
X249128Y461499D01*
Y460833D01*
X246463D01*
X250461Y459500D02*
Y462166D01*
X252461D01*
X253127Y461499D01*
Y459500D01*
X254460D02*
X255793D01*
X255127D01*
Y463499D01*
X254460D01*
X257792Y459500D02*
X259125D01*
X258459D01*
Y462166D01*
X257792D01*
X265123Y463499D02*
Y462832D01*
X266456Y461499D01*
X267789Y462832D01*
Y463499D01*
X266456Y461499D02*
Y459500D01*
X269122Y462166D02*
Y460166D01*
X269788Y459500D01*
X271788D01*
Y462166D01*
X273787D02*
X275120D01*
X275786Y461499D01*
Y459500D01*
X273787D01*
X273121Y460166D01*
X273787Y460833D01*
X275786D01*
X277119Y459500D02*
Y462166D01*
X279119D01*
X279785Y461499D01*
Y459500D01*
X286450D02*
X285117Y460833D01*
Y462166D01*
X286450Y463499D01*
X288449Y462832D02*
X289116Y463499D01*
X290448D01*
X291115Y462832D01*
Y460166D01*
X290448Y459500D01*
X289116D01*
X288449Y460166D01*
Y462832D01*
X292448D02*
X293114Y463499D01*
X294447D01*
X295114Y462832D01*
Y462166D01*
X294447Y461499D01*
X293781D01*
X294447D01*
X295114Y460833D01*
Y460166D01*
X294447Y459500D01*
X293114D01*
X292448Y460166D01*
X296446Y459500D02*
X299112Y462166D01*
X300445Y462832D02*
X301112Y463499D01*
X302445D01*
X303111Y462832D01*
Y462166D01*
X302445Y461499D01*
X301778D01*
X302445D01*
X303111Y460833D01*
Y460166D01*
X302445Y459500D01*
X301112D01*
X300445Y460166D01*
X304444Y459500D02*
X305777D01*
X305110D01*
Y463499D01*
X304444Y462832D01*
X307776Y459500D02*
X310442Y462166D01*
X314441Y459500D02*
X311775D01*
X314441Y462166D01*
Y462832D01*
X313774Y463499D01*
X312441D01*
X311775Y462832D01*
X315774D02*
X316440Y463499D01*
X317773D01*
X318439Y462832D01*
Y460166D01*
X317773Y459500D01*
X316440D01*
X315774Y460166D01*
Y462832D01*
X322438Y459500D02*
X319772D01*
X322438Y462166D01*
Y462832D01*
X321772Y463499D01*
X320439D01*
X319772Y462832D01*
X323771Y459500D02*
X325104D01*
X324437D01*
Y463499D01*
X323771Y462832D01*
X327103Y459500D02*
X328436Y460833D01*
Y462166D01*
X327103Y463499D01*
X130000Y143500D02*
Y149498D01*
X132999D01*
X133999Y148498D01*
Y146499D01*
X132999Y145499D01*
X130000D01*
X135998Y149498D02*
X139997D01*
Y148498D01*
X135998Y144500D01*
Y143500D01*
X184333D02*
Y149498D01*
X187332D01*
X188332Y148498D01*
Y146499D01*
X187332Y145499D01*
X184333D01*
X194330Y149498D02*
X192331Y148498D01*
X190331Y146499D01*
Y144500D01*
X191331Y143500D01*
X193330D01*
X194330Y144500D01*
Y145499D01*
X193330Y146499D01*
X190331D01*
X238667Y143500D02*
Y149498D01*
X241666D01*
X242665Y148498D01*
Y146499D01*
X241666Y145499D01*
X238667D01*
X248663Y149498D02*
X244665D01*
Y146499D01*
X246664Y147499D01*
X247664D01*
X248663Y146499D01*
Y144500D01*
X247664Y143500D01*
X245664D01*
X244665Y144500D01*
X293000Y143500D02*
Y149498D01*
X295999D01*
X296999Y148498D01*
Y146499D01*
X295999Y145499D01*
X293000D01*
X301997Y143500D02*
Y149498D01*
X298998Y146499D01*
X302997D01*
X347000Y348998D02*
Y344000D01*
X348000Y343000D01*
X349999D01*
X350999Y344000D01*
Y348998D01*
X356997D02*
X352998D01*
Y345999D01*
X354997Y346999D01*
X355997D01*
X356997Y345999D01*
Y344000D01*
X355997Y343000D01*
X353998D01*
X352998Y344000D01*
X363000Y426998D02*
Y422000D01*
X364000Y421000D01*
X365999D01*
X366999Y422000D01*
Y426998D01*
X368998Y421000D02*
X370997D01*
X369998D01*
Y426998D01*
X368998Y425998D01*
X364000Y250498D02*
X367999D01*
X365999D01*
Y244500D01*
X369998Y249498D02*
X370998Y250498D01*
X372997D01*
X373997Y249498D01*
Y248499D01*
X372997Y247499D01*
X373997Y246499D01*
Y245500D01*
X372997Y244500D01*
X370998D01*
X369998Y245500D01*
Y246499D01*
X370998Y247499D01*
X369998Y248499D01*
Y249498D01*
X370998Y247499D02*
X372997D01*
X209500Y350498D02*
Y344500D01*
X212499D01*
X213499Y345500D01*
Y349498D01*
X212499Y350498D01*
X209500D01*
X218497Y344500D02*
Y350498D01*
X215498Y347499D01*
X219497D01*
X327500Y350498D02*
Y344500D01*
X330499D01*
X331499Y345500D01*
Y349498D01*
X330499Y350498D01*
X327500D01*
X333498Y349498D02*
X334498Y350498D01*
X336497D01*
X337497Y349498D01*
Y348499D01*
X336497Y347499D01*
X335497D01*
X336497D01*
X337497Y346499D01*
Y345500D01*
X336497Y344500D01*
X334498D01*
X333498Y345500D01*
X345502Y259999D02*
X344502Y258999D01*
Y257000D01*
X345502Y256000D01*
X349500D01*
X350500Y257000D01*
Y258999D01*
X349500Y259999D01*
X350500Y261998D02*
Y263997D01*
Y262998D01*
X344502D01*
X345502Y261998D01*
X85000Y476500D02*
X380000D01*
Y101500D02*
Y476500D01*
X85000Y101500D02*
X380000D01*
X85000D02*
Y476500D01*
D12*
X318905Y127882D02*
Y141661D01*
X277567D02*
X318905D01*
X277567Y127882D02*
Y141661D01*
Y127882D02*
X318905D01*
X264405D02*
Y141661D01*
X223067D02*
X264405D01*
X223067Y127882D02*
Y141661D01*
Y127882D02*
X264405D01*
X209906D02*
Y141661D01*
X168567D02*
X209906D01*
X168567Y127882D02*
Y141661D01*
Y127882D02*
X209906D01*
X155405D02*
Y141661D01*
X114067D02*
X155405D01*
X114067Y127882D02*
Y141661D01*
Y127882D02*
X155405D01*
D13*
X344953Y292469D02*
Y338531D01*
X345346D02*
X374874D01*
Y292469D02*
Y338531D01*
X345346Y292469D02*
X374874D01*
D14*
X366500Y280501D02*
X363834D01*
X365167Y279168D02*
Y281834D01*
M02*
