M48
;Layer_Color=9474304
;FILE_FORMAT=2:5
INCH,LZ
;TYPE=PLATED
T01F00S00C0.02756
T02F00S00C0.02800
T03F00S00C0.03000
T04F00S00C0.03900
T05F00S00C0.03937
T06F00S00C0.04000
T07F00S00C0.05700
T08F00S00C0.08500
T09F00S00C0.14500
;TYPE=NON_PLATED
T10F00S00C0.08500
%
T01
X0119973Y0133
X0125878
X0131783
X0137689
X0143595
X01495
X0174472
X0180378
X0186284
X0192189
X0198094
X0204
X0228972
X0234878
X0240784
X0246689
X0252594
X02585
X0283472
X0289378
X0295284
X0301189
X0307095
X0313
T02
X03125Y0299
X033
X0301Y02675
X0293Y0268
X0196Y02945
X0183167
X0170333
Y0281
X01575
Y0265
X0175Y0230429
Y0213286
Y0196143
Y0179
X0185Y0187571
Y0204714
Y0221857
Y0239
X0183167Y0308
X0146Y01965
Y01805
X01345Y01885
Y01725
X00985Y0356
Y03713
Y03866
Y04019
Y04172
Y04325
X0144704Y04255
X0154409Y0401
X0135
X0173818
X0193227
X0212636
X0232045
X0251454
X0270864
X0290273
X0309682
X0299977Y04255
X0280568
X0261159
X024175
X0222341
X0202932
X0183523
X0164114
X02675Y03555
X02728Y03487
X02781Y03419
X02834Y03351
X02887Y03283
X0294Y03215
X03125Y03125
X033
X0329091Y0401
X0338795Y04255
X0319386
T03
X0355Y0274
X0365
T04
X0233Y0166
Y0176
Y0186
Y0196
Y0206
Y0216
Y0226
Y0236
Y0246
Y0256
Y0266
Y0276
Y0286
Y0296
Y0306
X0243
Y0276
Y0266
Y0256
Y0226
Y0216
X0125
X0115
Y0206
Y0196
Y0186
Y0176
Y0166
Y0226
Y0236
Y0246
Y0256
Y0266
Y0276
Y0286
Y0296
Y0306
X0125
Y0276
Y0266
Y0256
Y0226
Y0316
X0115
Y0326
Y0336
X0233
Y0326
Y0316
X0243
T05
X0357701Y0213472
Y0223315
Y0233157
X0367Y03055
Y03155
Y03255
T06
X01175Y03815
X01275
X01375
X01475
Y04415
X01375
X01275
X01175
X01575
X01675
X01775
X01875
X01975
X02075
X02175
X02275
X02375
X02475
X02575
X02675
X02775
X02875
X02975
X03075
Y03815
X02975
X02875
X02775
X02675
X02575
X02475
X02375
X02275
X02175
X02075
X01975
X01875
X01775
X01675
X01575
X03175
X03275
X03375
X03475
Y04415
X03375
X03275
X03175
T07
X03237Y02147
Y022848
Y024202
Y0255799
Y0269339
Y0283119
X02057
Y0269339
Y0255799
Y024202
Y022848
Y02147
T08
X021Y0331
X0328
T09
X01Y01165
X0365
X01Y046
X0365
T10
X0328Y0171
X021
M30
